<?xml version="1.0" encoding="utf-8" standalone="no"?>
<!DOCTYPE svg PUBLIC "-//W3C//DTD SVG 1.1//EN"
  "http://www.w3.org/Graphics/SVG/1.1/DTD/svg11.dtd">
<svg xmlns:xlink="http://www.w3.org/1999/xlink" width="460.8pt" height="345.6pt" viewBox="0 0 460.8 345.6" xmlns="http://www.w3.org/2000/svg" version="1.1">
 <metadata>
  <rdf:RDF xmlns:dc="http://purl.org/dc/elements/1.1/" xmlns:cc="http://creativecommons.org/ns#" xmlns:rdf="http://www.w3.org/1999/02/22-rdf-syntax-ns#">
   <cc:Work>
    <dc:type rdf:resource="http://purl.org/dc/dcmitype/StillImage"/>
    <dc:date>2024-09-26T18:57:06.566809</dc:date>
    <dc:format>image/svg+xml</dc:format>
    <dc:creator>
     <cc:Agent>
      <dc:title>Matplotlib v3.5.2, https://matplotlib.org/</dc:title>
     </cc:Agent>
    </dc:creator>
   </cc:Work>
  </rdf:RDF>
 </metadata>
 <defs>
  <style type="text/css">*{stroke-linejoin: round; stroke-linecap: butt}</style>
 </defs>
 <g id="figure_1">
  <g id="patch_1">
   <path d="M 0 345.6 
L 460.8 345.6 
L 460.8 0 
L 0 0 
z
" style="fill: #ffffff"/>
  </g>
  <g id="axes_1">
   <g id="patch_2">
    <path d="M 57.89 293.56 
L 450 293.56 
L 450 10.8 
L 57.89 10.8 
z
" style="fill: #ffffff"/>
   </g>
   <g id="PathCollection_1">
    <defs>
     <path id="C0_0_25476886d1" d="M 0 3 
C 0.795609 3 1.55874 2.683901 2.12132 2.12132 
C 2.683901 1.55874 3 0.795609 3 -0 
C 3 -0.795609 2.683901 -1.55874 2.12132 -2.12132 
C 1.55874 -2.683901 0.795609 -3 0 -3 
C -0.795609 -3 -1.55874 -2.683901 -2.12132 -2.12132 
C -2.683901 -1.55874 -3 -0.795609 -3 0 
C -3 0.795609 -2.683901 1.55874 -2.12132 2.12132 
C -1.55874 2.683901 -0.795609 3 0 3 
z
"/>
    </defs>
    <g clip-path="url(#p401278efb8)">
     <use xlink:href="#C0_0_25476886d1" x="75.713182" y="252.751403" style="fill: none; stroke: #0000ff"/>
    </g>
    <g clip-path="url(#p401278efb8)">
     <use xlink:href="#C0_0_25476886d1" x="90.565833" y="208.130482" style="fill: none; stroke: #0000ff"/>
    </g>
    <g clip-path="url(#p401278efb8)">
     <use xlink:href="#C0_0_25476886d1" x="105.418485" y="190.753694" style="fill: none; stroke: #0000ff"/>
    </g>
    <g clip-path="url(#p401278efb8)">
     <use xlink:href="#C0_0_25476886d1" x="120.271136" y="176.90388" style="fill: none; stroke: #0000ff"/>
    </g>
    <g clip-path="url(#p401278efb8)">
     <use xlink:href="#C0_0_25476886d1" x="135.123788" y="206.340301" style="fill: none; stroke: #0000ff"/>
    </g>
    <g clip-path="url(#p401278efb8)">
     <use xlink:href="#C0_0_25476886d1" x="149.976439" y="122.325872" style="fill: none; stroke: #0000ff"/>
    </g>
    <g clip-path="url(#p401278efb8)">
     <use xlink:href="#C0_0_25476886d1" x="164.829091" y="123.687162" style="fill: none; stroke: #0000ff"/>
    </g>
    <g clip-path="url(#p401278efb8)">
     <use xlink:href="#C0_0_25476886d1" x="179.681742" y="137.73365" style="fill: none; stroke: #0000ff"/>
    </g>
    <g clip-path="url(#p401278efb8)">
     <use xlink:href="#C0_0_25476886d1" x="194.534394" y="150.405684" style="fill: none; stroke: #0000ff"/>
    </g>
    <g clip-path="url(#p401278efb8)">
     <use xlink:href="#C0_0_25476886d1" x="209.387045" y="85.300897" style="fill: none; stroke: #0000ff"/>
    </g>
    <g clip-path="url(#p401278efb8)">
     <use xlink:href="#C0_0_25476886d1" x="224.239697" y="77.214338" style="fill: none; stroke: #0000ff"/>
    </g>
    <g clip-path="url(#p401278efb8)">
     <use xlink:href="#C0_0_25476886d1" x="239.092348" y="83.150061" style="fill: none; stroke: #0000ff"/>
    </g>
    <g clip-path="url(#p401278efb8)">
     <use xlink:href="#C0_0_25476886d1" x="253.945" y="67.620224" style="fill: none; stroke: #0000ff"/>
    </g>
    <g clip-path="url(#p401278efb8)">
     <use xlink:href="#C0_0_25476886d1" x="268.797652" y="67.512635" style="fill: none; stroke: #0000ff"/>
    </g>
    <g clip-path="url(#p401278efb8)">
     <use xlink:href="#C0_0_25476886d1" x="283.650303" y="73.749182" style="fill: none; stroke: #0000ff"/>
    </g>
    <g clip-path="url(#p401278efb8)">
     <use xlink:href="#C0_0_25476886d1" x="298.502955" y="52.86909" style="fill: none; stroke: #0000ff"/>
    </g>
    <g clip-path="url(#p401278efb8)">
     <use xlink:href="#C0_0_25476886d1" x="313.355606" y="93.63926" style="fill: none; stroke: #0000ff"/>
    </g>
    <g clip-path="url(#p401278efb8)">
     <use xlink:href="#C0_0_25476886d1" x="328.208258" y="86.355741" style="fill: none; stroke: #0000ff"/>
    </g>
    <g clip-path="url(#p401278efb8)">
     <use xlink:href="#C0_0_25476886d1" x="343.060909" y="52.180205" style="fill: none; stroke: #0000ff"/>
    </g>
    <g clip-path="url(#p401278efb8)">
     <use xlink:href="#C0_0_25476886d1" x="357.913561" y="56.868609" style="fill: none; stroke: #0000ff"/>
    </g>
    <g clip-path="url(#p401278efb8)">
     <use xlink:href="#C0_0_25476886d1" x="372.766212" y="43.494566" style="fill: none; stroke: #0000ff"/>
    </g>
    <g clip-path="url(#p401278efb8)">
     <use xlink:href="#C0_0_25476886d1" x="387.618864" y="35.664953" style="fill: none; stroke: #0000ff"/>
    </g>
    <g clip-path="url(#p401278efb8)">
     <use xlink:href="#C0_0_25476886d1" x="402.471515" y="25.704042" style="fill: none; stroke: #0000ff"/>
    </g>
    <g clip-path="url(#p401278efb8)">
     <use xlink:href="#C0_0_25476886d1" x="417.324167" y="60.970107" style="fill: none; stroke: #0000ff"/>
    </g>
    <g clip-path="url(#p401278efb8)">
     <use xlink:href="#C0_0_25476886d1" x="432.176818" y="23.652727" style="fill: none; stroke: #0000ff"/>
    </g>
   </g>
   <g id="PathCollection_2">
    <defs>
     <path id="m212143aef0" d="M 0 -3 
L -3 3 
L 3 3 
z
" style="stroke: #ff0000"/>
    </defs>
    <g clip-path="url(#p401278efb8)">
     <use xlink:href="#m212143aef0" x="75.713182" y="275.807176" style="fill: #ff0000; stroke: #ff0000"/>
     <use xlink:href="#m212143aef0" x="90.565833" y="250.028134" style="fill: #ff0000; stroke: #ff0000"/>
     <use xlink:href="#m212143aef0" x="105.418485" y="234.871909" style="fill: #ff0000; stroke: #ff0000"/>
     <use xlink:href="#m212143aef0" x="120.271136" y="219.192503" style="fill: #ff0000; stroke: #ff0000"/>
     <use xlink:href="#m212143aef0" x="135.123788" y="220.276909" style="fill: #ff0000; stroke: #ff0000"/>
     <use xlink:href="#m212143aef0" x="149.976439" y="216.938976" style="fill: #ff0000; stroke: #ff0000"/>
     <use xlink:href="#m212143aef0" x="164.829091" y="187.18376" style="fill: #ff0000; stroke: #ff0000"/>
     <use xlink:href="#m212143aef0" x="179.681742" y="148.24338" style="fill: #ff0000; stroke: #ff0000"/>
     <use xlink:href="#m212143aef0" x="194.534394" y="201.355229" style="fill: #ff0000; stroke: #ff0000"/>
     <use xlink:href="#m212143aef0" x="209.387045" y="189.765466" style="fill: #ff0000; stroke: #ff0000"/>
     <use xlink:href="#m212143aef0" x="224.239697" y="140.840113" style="fill: #ff0000; stroke: #ff0000"/>
     <use xlink:href="#m212143aef0" x="239.092348" y="186.393732" style="fill: #ff0000; stroke: #ff0000"/>
     <use xlink:href="#m212143aef0" x="253.945" y="182.228982" style="fill: #ff0000; stroke: #ff0000"/>
     <use xlink:href="#m212143aef0" x="268.797652" y="147.787849" style="fill: #ff0000; stroke: #ff0000"/>
     <use xlink:href="#m212143aef0" x="283.650303" y="154.678199" style="fill: #ff0000; stroke: #ff0000"/>
     <use xlink:href="#m212143aef0" x="298.502955" y="113.590075" style="fill: #ff0000; stroke: #ff0000"/>
     <use xlink:href="#m212143aef0" x="313.355606" y="130.602279" style="fill: #ff0000; stroke: #ff0000"/>
     <use xlink:href="#m212143aef0" x="328.208258" y="137.670141" style="fill: #ff0000; stroke: #ff0000"/>
     <use xlink:href="#m212143aef0" x="343.060909" y="106.626541" style="fill: #ff0000; stroke: #ff0000"/>
     <use xlink:href="#m212143aef0" x="357.913561" y="56.868609" style="fill: #ff0000; stroke: #ff0000"/>
     <use xlink:href="#m212143aef0" x="372.766212" y="43.494566" style="fill: #ff0000; stroke: #ff0000"/>
     <use xlink:href="#m212143aef0" x="387.618864" y="119.41755" style="fill: #ff0000; stroke: #ff0000"/>
     <use xlink:href="#m212143aef0" x="402.471515" y="62.095522" style="fill: #ff0000; stroke: #ff0000"/>
     <use xlink:href="#m212143aef0" x="417.324167" y="80.947474" style="fill: #ff0000; stroke: #ff0000"/>
     <use xlink:href="#m212143aef0" x="432.176818" y="118.67232" style="fill: #ff0000; stroke: #ff0000"/>
    </g>
   </g>
   <g id="PathCollection_3">
    <path d="M 75.713182 277.707273 
L 72.713182 283.707273 
L 78.713182 283.707273 
L 75.713182 277.707273 
z
" clip-path="url(#p401278efb8)" style="fill: none; stroke: #ff0000"/>
    <path d="M 90.565833 256.789589 
L 87.565833 262.789589 
L 93.565833 262.789589 
L 90.565833 256.789589 
z
" clip-path="url(#p401278efb8)" style="fill: none; stroke: #ff0000"/>
    <path d="M 105.418485 241.601742 
L 102.418485 247.601742 
L 108.418485 247.601742 
L 105.418485 241.601742 
z
" clip-path="url(#p401278efb8)" style="fill: none; stroke: #ff0000"/>
    <path d="M 120.271136 231.215503 
L 117.271136 237.215503 
L 123.271136 237.215503 
L 120.271136 231.215503 
z
" clip-path="url(#p401278efb8)" style="fill: none; stroke: #ff0000"/>
    <path d="M 135.123788 223.315011 
L 132.123788 229.315011 
L 138.123788 229.315011 
L 135.123788 223.315011 
z
" clip-path="url(#p401278efb8)" style="fill: none; stroke: #ff0000"/>
    <path d="M 149.976439 215.789523 
L 146.976439 221.789523 
L 152.976439 221.789523 
L 149.976439 215.789523 
z
" clip-path="url(#p401278efb8)" style="fill: none; stroke: #ff0000"/>
    <path d="M 164.829091 209.333529 
L 161.829091 215.333529 
L 167.829091 215.333529 
L 164.829091 209.333529 
z
" clip-path="url(#p401278efb8)" style="fill: none; stroke: #ff0000"/>
    <path d="M 179.681742 201.656703 
L 176.681742 207.656703 
L 182.681742 207.656703 
L 179.681742 201.656703 
z
" clip-path="url(#p401278efb8)" style="fill: none; stroke: #ff0000"/>
    <path d="M 194.534394 196.059035 
L 191.534394 202.059035 
L 197.534394 202.059035 
L 194.534394 196.059035 
z
" clip-path="url(#p401278efb8)" style="fill: none; stroke: #ff0000"/>
    <path d="M 209.387045 192.342176 
L 206.387045 198.342176 
L 212.387045 198.342176 
L 209.387045 192.342176 
z
" clip-path="url(#p401278efb8)" style="fill: none; stroke: #ff0000"/>
    <path d="M 224.239697 188.47377 
L 221.239697 194.47377 
L 227.239697 194.47377 
L 224.239697 188.47377 
z
" clip-path="url(#p401278efb8)" style="fill: none; stroke: #ff0000"/>
    <path d="M 239.092348 185.366913 
L 236.092348 191.366913 
L 242.092348 191.366913 
L 239.092348 185.366913 
z
" clip-path="url(#p401278efb8)" style="fill: none; stroke: #ff0000"/>
    <path d="M 253.945 181.406207 
L 250.945 187.406207 
L 256.945 187.406207 
L 253.945 181.406207 
z
" clip-path="url(#p401278efb8)" style="fill: none; stroke: #ff0000"/>
    <path d="M 268.797652 178.701476 
L 265.797652 184.701476 
L 271.797652 184.701476 
L 268.797652 178.701476 
z
" clip-path="url(#p401278efb8)" style="fill: none; stroke: #ff0000"/>
    <path d="M 283.650303 175.745342 
L 280.650303 181.745342 
L 286.650303 181.745342 
L 283.650303 175.745342 
z
" clip-path="url(#p401278efb8)" style="fill: none; stroke: #ff0000"/>
    <path d="M 298.502955 173.546128 
L 295.502955 179.546128 
L 301.502955 179.546128 
L 298.502955 173.546128 
z
" clip-path="url(#p401278efb8)" style="fill: none; stroke: #ff0000"/>
    <path d="M 313.355606 170.350462 
L 310.355606 176.350462 
L 316.355606 176.350462 
L 313.355606 170.350462 
z
" clip-path="url(#p401278efb8)" style="fill: none; stroke: #ff0000"/>
    <path d="M 328.208258 168.561332 
L 325.208258 174.561332 
L 331.208258 174.561332 
L 328.208258 168.561332 
z
" clip-path="url(#p401278efb8)" style="fill: none; stroke: #ff0000"/>
    <path d="M 343.060909 165.911125 
L 340.060909 171.911125 
L 346.060909 171.911125 
L 343.060909 165.911125 
z
" clip-path="url(#p401278efb8)" style="fill: none; stroke: #ff0000"/>
    <path d="M 357.913561 164.672434 
L 354.913561 170.672434 
L 360.913561 170.672434 
L 357.913561 164.672434 
z
" clip-path="url(#p401278efb8)" style="fill: none; stroke: #ff0000"/>
    <path d="M 372.766212 162.340455 
L 369.766212 168.340455 
L 375.766212 168.340455 
L 372.766212 162.340455 
z
" clip-path="url(#p401278efb8)" style="fill: none; stroke: #ff0000"/>
    <path d="M 387.618864 159.616016 
L 384.618864 165.616016 
L 390.618864 165.616016 
L 387.618864 159.616016 
z
" clip-path="url(#p401278efb8)" style="fill: none; stroke: #ff0000"/>
    <path d="M 402.471515 157.868399 
L 399.471515 163.868399 
L 405.471515 163.868399 
L 402.471515 157.868399 
z
" clip-path="url(#p401278efb8)" style="fill: none; stroke: #ff0000"/>
    <path d="M 417.324167 157.337006 
L 414.324167 163.337006 
L 420.324167 163.337006 
L 417.324167 157.337006 
z
" clip-path="url(#p401278efb8)" style="fill: none; stroke: #ff0000"/>
    <path d="M 432.176818 154.841833 
L 429.176818 160.841833 
L 435.176818 160.841833 
L 432.176818 154.841833 
z
" clip-path="url(#p401278efb8)" style="fill: none; stroke: #ff0000"/>
   </g>
   <g id="PathCollection_4">
    <defs>
     <path id="C1_0_02bec05d75" d="M -3 3 
L 3 3 
L 3 -3 
L -3 -3 
z
"/>
    </defs>
    <g clip-path="url(#p401278efb8)">
     <use xlink:href="#C1_0_02bec05d75" x="75.713182" y="280.70726" style="fill: none; stroke: #bfbf00"/>
    </g>
    <g clip-path="url(#p401278efb8)">
     <use xlink:href="#C1_0_02bec05d75" x="90.565833" y="259.789589" style="fill: none; stroke: #bfbf00"/>
    </g>
    <g clip-path="url(#p401278efb8)">
     <use xlink:href="#C1_0_02bec05d75" x="105.418485" y="244.601736" style="fill: none; stroke: #bfbf00"/>
    </g>
    <g clip-path="url(#p401278efb8)">
     <use xlink:href="#C1_0_02bec05d75" x="120.271136" y="233.051785" style="fill: none; stroke: #bfbf00"/>
    </g>
    <g clip-path="url(#p401278efb8)">
     <use xlink:href="#C1_0_02bec05d75" x="135.123788" y="223.411166" style="fill: none; stroke: #bfbf00"/>
    </g>
    <g clip-path="url(#p401278efb8)">
     <use xlink:href="#C1_0_02bec05d75" x="149.976439" y="215.662274" style="fill: none; stroke: #bfbf00"/>
    </g>
    <g clip-path="url(#p401278efb8)">
     <use xlink:href="#C1_0_02bec05d75" x="164.829091" y="208.47225" style="fill: none; stroke: #bfbf00"/>
    </g>
    <g clip-path="url(#p401278efb8)">
     <use xlink:href="#C1_0_02bec05d75" x="179.681742" y="202.402297" style="fill: none; stroke: #bfbf00"/>
    </g>
    <g clip-path="url(#p401278efb8)">
     <use xlink:href="#C1_0_02bec05d75" x="194.534394" y="198.39199" style="fill: none; stroke: #bfbf00"/>
    </g>
    <g clip-path="url(#p401278efb8)">
     <use xlink:href="#C1_0_02bec05d75" x="209.387045" y="192.826782" style="fill: none; stroke: #bfbf00"/>
    </g>
    <g clip-path="url(#p401278efb8)">
     <use xlink:href="#C1_0_02bec05d75" x="224.239697" y="188.886839" style="fill: none; stroke: #bfbf00"/>
    </g>
    <g clip-path="url(#p401278efb8)">
     <use xlink:href="#C1_0_02bec05d75" x="239.092348" y="185.466835" style="fill: none; stroke: #bfbf00"/>
    </g>
    <g clip-path="url(#p401278efb8)">
     <use xlink:href="#C1_0_02bec05d75" x="253.945" y="180.396873" style="fill: none; stroke: #bfbf00"/>
    </g>
    <g clip-path="url(#p401278efb8)">
     <use xlink:href="#C1_0_02bec05d75" x="268.797652" y="177.989592" style="fill: none; stroke: #bfbf00"/>
    </g>
    <g clip-path="url(#p401278efb8)">
     <use xlink:href="#C1_0_02bec05d75" x="283.650303" y="174.587998" style="fill: none; stroke: #bfbf00"/>
    </g>
    <g clip-path="url(#p401278efb8)">
     <use xlink:href="#C1_0_02bec05d75" x="298.502955" y="171.6661" style="fill: none; stroke: #bfbf00"/>
    </g>
    <g clip-path="url(#p401278efb8)">
     <use xlink:href="#C1_0_02bec05d75" x="313.355606" y="168.77062" style="fill: none; stroke: #bfbf00"/>
    </g>
    <g clip-path="url(#p401278efb8)">
     <use xlink:href="#C1_0_02bec05d75" x="328.208258" y="166.452141" style="fill: none; stroke: #bfbf00"/>
    </g>
    <g clip-path="url(#p401278efb8)">
     <use xlink:href="#C1_0_02bec05d75" x="343.060909" y="165.098235" style="fill: none; stroke: #bfbf00"/>
    </g>
    <g clip-path="url(#p401278efb8)">
     <use xlink:href="#C1_0_02bec05d75" x="357.913561" y="161.618366" style="fill: none; stroke: #bfbf00"/>
    </g>
    <g clip-path="url(#p401278efb8)">
     <use xlink:href="#C1_0_02bec05d75" x="372.766212" y="158.84058" style="fill: none; stroke: #bfbf00"/>
    </g>
    <g clip-path="url(#p401278efb8)">
     <use xlink:href="#C1_0_02bec05d75" x="387.618864" y="157.793057" style="fill: none; stroke: #bfbf00"/>
    </g>
    <g clip-path="url(#p401278efb8)">
     <use xlink:href="#C1_0_02bec05d75" x="402.471515" y="155.699103" style="fill: none; stroke: #bfbf00"/>
    </g>
    <g clip-path="url(#p401278efb8)">
     <use xlink:href="#C1_0_02bec05d75" x="417.324167" y="153.777244" style="fill: none; stroke: #bfbf00"/>
    </g>
    <g clip-path="url(#p401278efb8)">
     <use xlink:href="#C1_0_02bec05d75" x="432.176818" y="152.551152" style="fill: none; stroke: #bfbf00"/>
    </g>
   </g>
   <g id="matplotlib.axis_1">
    <g id="xtick_1">
     <g id="line2d_1">
      <defs>
       <path id="m83c613cdca" d="M 0 0 
L 0 3.5 
" style="stroke: #000000; stroke-width: 0.8"/>
      </defs>
      <g>
       <use xlink:href="#m83c613cdca" x="60.86053" y="293.56" style="stroke: #000000; stroke-width: 0.8"/>
      </g>
     </g>
     <g id="text_1">
      <!-- 0 -->
      <g transform="translate(57.67928 308.158437)scale(0.1 -0.1)">
       <defs>
        <path id="DejaVuSans-30" d="M 2034 4250 
Q 1547 4250 1301 3770 
Q 1056 3291 1056 2328 
Q 1056 1369 1301 889 
Q 1547 409 2034 409 
Q 2525 409 2770 889 
Q 3016 1369 3016 2328 
Q 3016 3291 2770 3770 
Q 2525 4250 2034 4250 
z
M 2034 4750 
Q 2819 4750 3233 4129 
Q 3647 3509 3647 2328 
Q 3647 1150 3233 529 
Q 2819 -91 2034 -91 
Q 1250 -91 836 529 
Q 422 1150 422 2328 
Q 422 3509 836 4129 
Q 1250 4750 2034 4750 
z
" transform="scale(0.015625)"/>
       </defs>
       <use xlink:href="#DejaVuSans-30"/>
      </g>
     </g>
    </g>
    <g id="xtick_2">
     <g id="line2d_2">
      <g>
       <use xlink:href="#m83c613cdca" x="135.123788" y="293.56" style="stroke: #000000; stroke-width: 0.8"/>
      </g>
     </g>
     <g id="text_2">
      <!-- 50 -->
      <g transform="translate(128.761288 308.158437)scale(0.1 -0.1)">
       <defs>
        <path id="DejaVuSans-35" d="M 691 4666 
L 3169 4666 
L 3169 4134 
L 1269 4134 
L 1269 2991 
Q 1406 3038 1543 3061 
Q 1681 3084 1819 3084 
Q 2600 3084 3056 2656 
Q 3513 2228 3513 1497 
Q 3513 744 3044 326 
Q 2575 -91 1722 -91 
Q 1428 -91 1123 -41 
Q 819 9 494 109 
L 494 744 
Q 775 591 1075 516 
Q 1375 441 1709 441 
Q 2250 441 2565 725 
Q 2881 1009 2881 1497 
Q 2881 1984 2565 2268 
Q 2250 2553 1709 2553 
Q 1456 2553 1204 2497 
Q 953 2441 691 2322 
L 691 4666 
z
" transform="scale(0.015625)"/>
       </defs>
       <use xlink:href="#DejaVuSans-35"/>
       <use xlink:href="#DejaVuSans-30" x="63.623047"/>
      </g>
     </g>
    </g>
    <g id="xtick_3">
     <g id="line2d_3">
      <g>
       <use xlink:href="#m83c613cdca" x="209.387045" y="293.56" style="stroke: #000000; stroke-width: 0.8"/>
      </g>
     </g>
     <g id="text_3">
      <!-- 100 -->
      <g transform="translate(199.843295 308.158437)scale(0.1 -0.1)">
       <defs>
        <path id="DejaVuSans-31" d="M 794 531 
L 1825 531 
L 1825 4091 
L 703 3866 
L 703 4441 
L 1819 4666 
L 2450 4666 
L 2450 531 
L 3481 531 
L 3481 0 
L 794 0 
L 794 531 
z
" transform="scale(0.015625)"/>
       </defs>
       <use xlink:href="#DejaVuSans-31"/>
       <use xlink:href="#DejaVuSans-30" x="63.623047"/>
       <use xlink:href="#DejaVuSans-30" x="127.246094"/>
      </g>
     </g>
    </g>
    <g id="xtick_4">
     <g id="line2d_4">
      <g>
       <use xlink:href="#m83c613cdca" x="283.650303" y="293.56" style="stroke: #000000; stroke-width: 0.8"/>
      </g>
     </g>
     <g id="text_4">
      <!-- 150 -->
      <g transform="translate(274.106553 308.158437)scale(0.1 -0.1)">
       <use xlink:href="#DejaVuSans-31"/>
       <use xlink:href="#DejaVuSans-35" x="63.623047"/>
       <use xlink:href="#DejaVuSans-30" x="127.246094"/>
      </g>
     </g>
    </g>
    <g id="xtick_5">
     <g id="line2d_5">
      <g>
       <use xlink:href="#m83c613cdca" x="357.913561" y="293.56" style="stroke: #000000; stroke-width: 0.8"/>
      </g>
     </g>
     <g id="text_5">
      <!-- 200 -->
      <g transform="translate(348.369811 308.158437)scale(0.1 -0.1)">
       <defs>
        <path id="DejaVuSans-32" d="M 1228 531 
L 3431 531 
L 3431 0 
L 469 0 
L 469 531 
Q 828 903 1448 1529 
Q 2069 2156 2228 2338 
Q 2531 2678 2651 2914 
Q 2772 3150 2772 3378 
Q 2772 3750 2511 3984 
Q 2250 4219 1831 4219 
Q 1534 4219 1204 4116 
Q 875 4013 500 3803 
L 500 4441 
Q 881 4594 1212 4672 
Q 1544 4750 1819 4750 
Q 2544 4750 2975 4387 
Q 3406 4025 3406 3419 
Q 3406 3131 3298 2873 
Q 3191 2616 2906 2266 
Q 2828 2175 2409 1742 
Q 1991 1309 1228 531 
z
" transform="scale(0.015625)"/>
       </defs>
       <use xlink:href="#DejaVuSans-32"/>
       <use xlink:href="#DejaVuSans-30" x="63.623047"/>
       <use xlink:href="#DejaVuSans-30" x="127.246094"/>
      </g>
     </g>
    </g>
    <g id="xtick_6">
     <g id="line2d_6">
      <g>
       <use xlink:href="#m83c613cdca" x="432.176818" y="293.56" style="stroke: #000000; stroke-width: 0.8"/>
      </g>
     </g>
     <g id="text_6">
      <!-- 250 -->
      <g transform="translate(422.633068 308.158437)scale(0.1 -0.1)">
       <use xlink:href="#DejaVuSans-32"/>
       <use xlink:href="#DejaVuSans-35" x="63.623047"/>
       <use xlink:href="#DejaVuSans-30" x="127.246094"/>
      </g>
     </g>
    </g>
    <g id="text_7">
     <!-- Size of subset K -->
     <g transform="translate(174.5075 329.435)scale(0.2 -0.2)">
      <defs>
       <path id="DejaVuSans-53" d="M 3425 4513 
L 3425 3897 
Q 3066 4069 2747 4153 
Q 2428 4238 2131 4238 
Q 1616 4238 1336 4038 
Q 1056 3838 1056 3469 
Q 1056 3159 1242 3001 
Q 1428 2844 1947 2747 
L 2328 2669 
Q 3034 2534 3370 2195 
Q 3706 1856 3706 1288 
Q 3706 609 3251 259 
Q 2797 -91 1919 -91 
Q 1588 -91 1214 -16 
Q 841 59 441 206 
L 441 856 
Q 825 641 1194 531 
Q 1563 422 1919 422 
Q 2459 422 2753 634 
Q 3047 847 3047 1241 
Q 3047 1584 2836 1778 
Q 2625 1972 2144 2069 
L 1759 2144 
Q 1053 2284 737 2584 
Q 422 2884 422 3419 
Q 422 4038 858 4394 
Q 1294 4750 2059 4750 
Q 2388 4750 2728 4690 
Q 3069 4631 3425 4513 
z
" transform="scale(0.015625)"/>
       <path id="DejaVuSans-69" d="M 603 3500 
L 1178 3500 
L 1178 0 
L 603 0 
L 603 3500 
z
M 603 4863 
L 1178 4863 
L 1178 4134 
L 603 4134 
L 603 4863 
z
" transform="scale(0.015625)"/>
       <path id="DejaVuSans-7a" d="M 353 3500 
L 3084 3500 
L 3084 2975 
L 922 459 
L 3084 459 
L 3084 0 
L 275 0 
L 275 525 
L 2438 3041 
L 353 3041 
L 353 3500 
z
" transform="scale(0.015625)"/>
       <path id="DejaVuSans-65" d="M 3597 1894 
L 3597 1613 
L 953 1613 
Q 991 1019 1311 708 
Q 1631 397 2203 397 
Q 2534 397 2845 478 
Q 3156 559 3463 722 
L 3463 178 
Q 3153 47 2828 -22 
Q 2503 -91 2169 -91 
Q 1331 -91 842 396 
Q 353 884 353 1716 
Q 353 2575 817 3079 
Q 1281 3584 2069 3584 
Q 2775 3584 3186 3129 
Q 3597 2675 3597 1894 
z
M 3022 2063 
Q 3016 2534 2758 2815 
Q 2500 3097 2075 3097 
Q 1594 3097 1305 2825 
Q 1016 2553 972 2059 
L 3022 2063 
z
" transform="scale(0.015625)"/>
       <path id="DejaVuSans-20" transform="scale(0.015625)"/>
       <path id="DejaVuSans-6f" d="M 1959 3097 
Q 1497 3097 1228 2736 
Q 959 2375 959 1747 
Q 959 1119 1226 758 
Q 1494 397 1959 397 
Q 2419 397 2687 759 
Q 2956 1122 2956 1747 
Q 2956 2369 2687 2733 
Q 2419 3097 1959 3097 
z
M 1959 3584 
Q 2709 3584 3137 3096 
Q 3566 2609 3566 1747 
Q 3566 888 3137 398 
Q 2709 -91 1959 -91 
Q 1206 -91 779 398 
Q 353 888 353 1747 
Q 353 2609 779 3096 
Q 1206 3584 1959 3584 
z
" transform="scale(0.015625)"/>
       <path id="DejaVuSans-66" d="M 2375 4863 
L 2375 4384 
L 1825 4384 
Q 1516 4384 1395 4259 
Q 1275 4134 1275 3809 
L 1275 3500 
L 2222 3500 
L 2222 3053 
L 1275 3053 
L 1275 0 
L 697 0 
L 697 3053 
L 147 3053 
L 147 3500 
L 697 3500 
L 697 3744 
Q 697 4328 969 4595 
Q 1241 4863 1831 4863 
L 2375 4863 
z
" transform="scale(0.015625)"/>
       <path id="DejaVuSans-73" d="M 2834 3397 
L 2834 2853 
Q 2591 2978 2328 3040 
Q 2066 3103 1784 3103 
Q 1356 3103 1142 2972 
Q 928 2841 928 2578 
Q 928 2378 1081 2264 
Q 1234 2150 1697 2047 
L 1894 2003 
Q 2506 1872 2764 1633 
Q 3022 1394 3022 966 
Q 3022 478 2636 193 
Q 2250 -91 1575 -91 
Q 1294 -91 989 -36 
Q 684 19 347 128 
L 347 722 
Q 666 556 975 473 
Q 1284 391 1588 391 
Q 1994 391 2212 530 
Q 2431 669 2431 922 
Q 2431 1156 2273 1281 
Q 2116 1406 1581 1522 
L 1381 1569 
Q 847 1681 609 1914 
Q 372 2147 372 2553 
Q 372 3047 722 3315 
Q 1072 3584 1716 3584 
Q 2034 3584 2315 3537 
Q 2597 3491 2834 3397 
z
" transform="scale(0.015625)"/>
       <path id="DejaVuSans-75" d="M 544 1381 
L 544 3500 
L 1119 3500 
L 1119 1403 
Q 1119 906 1312 657 
Q 1506 409 1894 409 
Q 2359 409 2629 706 
Q 2900 1003 2900 1516 
L 2900 3500 
L 3475 3500 
L 3475 0 
L 2900 0 
L 2900 538 
Q 2691 219 2414 64 
Q 2138 -91 1772 -91 
Q 1169 -91 856 284 
Q 544 659 544 1381 
z
M 1991 3584 
L 1991 3584 
z
" transform="scale(0.015625)"/>
       <path id="DejaVuSans-62" d="M 3116 1747 
Q 3116 2381 2855 2742 
Q 2594 3103 2138 3103 
Q 1681 3103 1420 2742 
Q 1159 2381 1159 1747 
Q 1159 1113 1420 752 
Q 1681 391 2138 391 
Q 2594 391 2855 752 
Q 3116 1113 3116 1747 
z
M 1159 2969 
Q 1341 3281 1617 3432 
Q 1894 3584 2278 3584 
Q 2916 3584 3314 3078 
Q 3713 2572 3713 1747 
Q 3713 922 3314 415 
Q 2916 -91 2278 -91 
Q 1894 -91 1617 61 
Q 1341 213 1159 525 
L 1159 0 
L 581 0 
L 581 4863 
L 1159 4863 
L 1159 2969 
z
" transform="scale(0.015625)"/>
       <path id="DejaVuSans-74" d="M 1172 4494 
L 1172 3500 
L 2356 3500 
L 2356 3053 
L 1172 3053 
L 1172 1153 
Q 1172 725 1289 603 
Q 1406 481 1766 481 
L 2356 481 
L 2356 0 
L 1766 0 
Q 1100 0 847 248 
Q 594 497 594 1153 
L 594 3053 
L 172 3053 
L 172 3500 
L 594 3500 
L 594 4494 
L 1172 4494 
z
" transform="scale(0.015625)"/>
       <path id="DejaVuSans-4b" d="M 628 4666 
L 1259 4666 
L 1259 2694 
L 3353 4666 
L 4166 4666 
L 1850 2491 
L 4331 0 
L 3500 0 
L 1259 2247 
L 1259 0 
L 628 0 
L 628 4666 
z
" transform="scale(0.015625)"/>
      </defs>
      <use xlink:href="#DejaVuSans-53"/>
      <use xlink:href="#DejaVuSans-69" x="63.476562"/>
      <use xlink:href="#DejaVuSans-7a" x="91.259766"/>
      <use xlink:href="#DejaVuSans-65" x="143.75"/>
      <use xlink:href="#DejaVuSans-20" x="205.273438"/>
      <use xlink:href="#DejaVuSans-6f" x="237.060547"/>
      <use xlink:href="#DejaVuSans-66" x="298.242188"/>
      <use xlink:href="#DejaVuSans-20" x="333.447266"/>
      <use xlink:href="#DejaVuSans-73" x="365.234375"/>
      <use xlink:href="#DejaVuSans-75" x="417.333984"/>
      <use xlink:href="#DejaVuSans-62" x="480.712891"/>
      <use xlink:href="#DejaVuSans-73" x="544.189453"/>
      <use xlink:href="#DejaVuSans-65" x="596.289062"/>
      <use xlink:href="#DejaVuSans-74" x="657.8125"/>
      <use xlink:href="#DejaVuSans-20" x="697.021484"/>
      <use xlink:href="#DejaVuSans-4b" x="728.808594"/>
     </g>
    </g>
   </g>
   <g id="matplotlib.axis_2">
    <g id="ytick_1">
     <g id="line2d_7">
      <defs>
       <path id="m6e9a74b2a6" d="M 0 0 
L -3.5 0 
" style="stroke: #000000; stroke-width: 0.8"/>
      </defs>
      <g>
       <use xlink:href="#m6e9a74b2a6" x="57.89" y="286.034256" style="stroke: #000000; stroke-width: 0.8"/>
      </g>
     </g>
     <g id="text_8">
      <!-- 0.6 -->
      <g transform="translate(34.986875 289.833474)scale(0.1 -0.1)">
       <defs>
        <path id="DejaVuSans-2e" d="M 684 794 
L 1344 794 
L 1344 0 
L 684 0 
L 684 794 
z
" transform="scale(0.015625)"/>
        <path id="DejaVuSans-36" d="M 2113 2584 
Q 1688 2584 1439 2293 
Q 1191 2003 1191 1497 
Q 1191 994 1439 701 
Q 1688 409 2113 409 
Q 2538 409 2786 701 
Q 3034 994 3034 1497 
Q 3034 2003 2786 2293 
Q 2538 2584 2113 2584 
z
M 3366 4563 
L 3366 3988 
Q 3128 4100 2886 4159 
Q 2644 4219 2406 4219 
Q 1781 4219 1451 3797 
Q 1122 3375 1075 2522 
Q 1259 2794 1537 2939 
Q 1816 3084 2150 3084 
Q 2853 3084 3261 2657 
Q 3669 2231 3669 1497 
Q 3669 778 3244 343 
Q 2819 -91 2113 -91 
Q 1303 -91 875 529 
Q 447 1150 447 2328 
Q 447 3434 972 4092 
Q 1497 4750 2381 4750 
Q 2619 4750 2861 4703 
Q 3103 4656 3366 4563 
z
" transform="scale(0.015625)"/>
       </defs>
       <use xlink:href="#DejaVuSans-30"/>
       <use xlink:href="#DejaVuSans-2e" x="63.623047"/>
       <use xlink:href="#DejaVuSans-36" x="95.410156"/>
      </g>
     </g>
    </g>
    <g id="ytick_2">
     <g id="line2d_8">
      <g>
       <use xlink:href="#m6e9a74b2a6" x="57.89" y="252.958687" style="stroke: #000000; stroke-width: 0.8"/>
      </g>
     </g>
     <g id="text_9">
      <!-- 0.8 -->
      <g transform="translate(34.986875 256.757906)scale(0.1 -0.1)">
       <defs>
        <path id="DejaVuSans-38" d="M 2034 2216 
Q 1584 2216 1326 1975 
Q 1069 1734 1069 1313 
Q 1069 891 1326 650 
Q 1584 409 2034 409 
Q 2484 409 2743 651 
Q 3003 894 3003 1313 
Q 3003 1734 2745 1975 
Q 2488 2216 2034 2216 
z
M 1403 2484 
Q 997 2584 770 2862 
Q 544 3141 544 3541 
Q 544 4100 942 4425 
Q 1341 4750 2034 4750 
Q 2731 4750 3128 4425 
Q 3525 4100 3525 3541 
Q 3525 3141 3298 2862 
Q 3072 2584 2669 2484 
Q 3125 2378 3379 2068 
Q 3634 1759 3634 1313 
Q 3634 634 3220 271 
Q 2806 -91 2034 -91 
Q 1263 -91 848 271 
Q 434 634 434 1313 
Q 434 1759 690 2068 
Q 947 2378 1403 2484 
z
M 1172 3481 
Q 1172 3119 1398 2916 
Q 1625 2713 2034 2713 
Q 2441 2713 2670 2916 
Q 2900 3119 2900 3481 
Q 2900 3844 2670 4047 
Q 2441 4250 2034 4250 
Q 1625 4250 1398 4047 
Q 1172 3844 1172 3481 
z
" transform="scale(0.015625)"/>
       </defs>
       <use xlink:href="#DejaVuSans-30"/>
       <use xlink:href="#DejaVuSans-2e" x="63.623047"/>
       <use xlink:href="#DejaVuSans-38" x="95.410156"/>
      </g>
     </g>
    </g>
    <g id="ytick_3">
     <g id="line2d_9">
      <g>
       <use xlink:href="#m6e9a74b2a6" x="57.89" y="219.883119" style="stroke: #000000; stroke-width: 0.8"/>
      </g>
     </g>
     <g id="text_10">
      <!-- 1.0 -->
      <g transform="translate(34.986875 223.682337)scale(0.1 -0.1)">
       <use xlink:href="#DejaVuSans-31"/>
       <use xlink:href="#DejaVuSans-2e" x="63.623047"/>
       <use xlink:href="#DejaVuSans-30" x="95.410156"/>
      </g>
     </g>
    </g>
    <g id="ytick_4">
     <g id="line2d_10">
      <g>
       <use xlink:href="#m6e9a74b2a6" x="57.89" y="186.80755" style="stroke: #000000; stroke-width: 0.8"/>
      </g>
     </g>
     <g id="text_11">
      <!-- 1.2 -->
      <g transform="translate(34.986875 190.606769)scale(0.1 -0.1)">
       <use xlink:href="#DejaVuSans-31"/>
       <use xlink:href="#DejaVuSans-2e" x="63.623047"/>
       <use xlink:href="#DejaVuSans-32" x="95.410156"/>
      </g>
     </g>
    </g>
    <g id="ytick_5">
     <g id="line2d_11">
      <g>
       <use xlink:href="#m6e9a74b2a6" x="57.89" y="153.731982" style="stroke: #000000; stroke-width: 0.8"/>
      </g>
     </g>
     <g id="text_12">
      <!-- 1.4 -->
      <g transform="translate(34.986875 157.531201)scale(0.1 -0.1)">
       <defs>
        <path id="DejaVuSans-34" d="M 2419 4116 
L 825 1625 
L 2419 1625 
L 2419 4116 
z
M 2253 4666 
L 3047 4666 
L 3047 1625 
L 3713 1625 
L 3713 1100 
L 3047 1100 
L 3047 0 
L 2419 0 
L 2419 1100 
L 313 1100 
L 313 1709 
L 2253 4666 
z
" transform="scale(0.015625)"/>
       </defs>
       <use xlink:href="#DejaVuSans-31"/>
       <use xlink:href="#DejaVuSans-2e" x="63.623047"/>
       <use xlink:href="#DejaVuSans-34" x="95.410156"/>
      </g>
     </g>
    </g>
    <g id="ytick_6">
     <g id="line2d_12">
      <g>
       <use xlink:href="#m6e9a74b2a6" x="57.89" y="120.656413" style="stroke: #000000; stroke-width: 0.8"/>
      </g>
     </g>
     <g id="text_13">
      <!-- 1.6 -->
      <g transform="translate(34.986875 124.455632)scale(0.1 -0.1)">
       <use xlink:href="#DejaVuSans-31"/>
       <use xlink:href="#DejaVuSans-2e" x="63.623047"/>
       <use xlink:href="#DejaVuSans-36" x="95.410156"/>
      </g>
     </g>
    </g>
    <g id="ytick_7">
     <g id="line2d_13">
      <g>
       <use xlink:href="#m6e9a74b2a6" x="57.89" y="87.580845" style="stroke: #000000; stroke-width: 0.8"/>
      </g>
     </g>
     <g id="text_14">
      <!-- 1.8 -->
      <g transform="translate(34.986875 91.380064)scale(0.1 -0.1)">
       <use xlink:href="#DejaVuSans-31"/>
       <use xlink:href="#DejaVuSans-2e" x="63.623047"/>
       <use xlink:href="#DejaVuSans-38" x="95.410156"/>
      </g>
     </g>
    </g>
    <g id="ytick_8">
     <g id="line2d_14">
      <g>
       <use xlink:href="#m6e9a74b2a6" x="57.89" y="54.505276" style="stroke: #000000; stroke-width: 0.8"/>
      </g>
     </g>
     <g id="text_15">
      <!-- 2.0 -->
      <g transform="translate(34.986875 58.304495)scale(0.1 -0.1)">
       <use xlink:href="#DejaVuSans-32"/>
       <use xlink:href="#DejaVuSans-2e" x="63.623047"/>
       <use xlink:href="#DejaVuSans-30" x="95.410156"/>
      </g>
     </g>
    </g>
    <g id="ytick_9">
     <g id="line2d_15">
      <g>
       <use xlink:href="#m6e9a74b2a6" x="57.89" y="21.429708" style="stroke: #000000; stroke-width: 0.8"/>
      </g>
     </g>
     <g id="text_16">
      <!-- 2.2 -->
      <g transform="translate(34.986875 25.228927)scale(0.1 -0.1)">
       <use xlink:href="#DejaVuSans-32"/>
       <use xlink:href="#DejaVuSans-2e" x="63.623047"/>
       <use xlink:href="#DejaVuSans-32" x="95.410156"/>
      </g>
     </g>
    </g>
    <g id="text_17">
     <!-- Electrastic Energy (order = 2) -->
     <g transform="translate(26.8275 301.431563)rotate(-90)scale(0.2 -0.2)">
      <defs>
       <path id="DejaVuSans-45" d="M 628 4666 
L 3578 4666 
L 3578 4134 
L 1259 4134 
L 1259 2753 
L 3481 2753 
L 3481 2222 
L 1259 2222 
L 1259 531 
L 3634 531 
L 3634 0 
L 628 0 
L 628 4666 
z
" transform="scale(0.015625)"/>
       <path id="DejaVuSans-6c" d="M 603 4863 
L 1178 4863 
L 1178 0 
L 603 0 
L 603 4863 
z
" transform="scale(0.015625)"/>
       <path id="DejaVuSans-63" d="M 3122 3366 
L 3122 2828 
Q 2878 2963 2633 3030 
Q 2388 3097 2138 3097 
Q 1578 3097 1268 2742 
Q 959 2388 959 1747 
Q 959 1106 1268 751 
Q 1578 397 2138 397 
Q 2388 397 2633 464 
Q 2878 531 3122 666 
L 3122 134 
Q 2881 22 2623 -34 
Q 2366 -91 2075 -91 
Q 1284 -91 818 406 
Q 353 903 353 1747 
Q 353 2603 823 3093 
Q 1294 3584 2113 3584 
Q 2378 3584 2631 3529 
Q 2884 3475 3122 3366 
z
" transform="scale(0.015625)"/>
       <path id="DejaVuSans-72" d="M 2631 2963 
Q 2534 3019 2420 3045 
Q 2306 3072 2169 3072 
Q 1681 3072 1420 2755 
Q 1159 2438 1159 1844 
L 1159 0 
L 581 0 
L 581 3500 
L 1159 3500 
L 1159 2956 
Q 1341 3275 1631 3429 
Q 1922 3584 2338 3584 
Q 2397 3584 2469 3576 
Q 2541 3569 2628 3553 
L 2631 2963 
z
" transform="scale(0.015625)"/>
       <path id="DejaVuSans-61" d="M 2194 1759 
Q 1497 1759 1228 1600 
Q 959 1441 959 1056 
Q 959 750 1161 570 
Q 1363 391 1709 391 
Q 2188 391 2477 730 
Q 2766 1069 2766 1631 
L 2766 1759 
L 2194 1759 
z
M 3341 1997 
L 3341 0 
L 2766 0 
L 2766 531 
Q 2569 213 2275 61 
Q 1981 -91 1556 -91 
Q 1019 -91 701 211 
Q 384 513 384 1019 
Q 384 1609 779 1909 
Q 1175 2209 1959 2209 
L 2766 2209 
L 2766 2266 
Q 2766 2663 2505 2880 
Q 2244 3097 1772 3097 
Q 1472 3097 1187 3025 
Q 903 2953 641 2809 
L 641 3341 
Q 956 3463 1253 3523 
Q 1550 3584 1831 3584 
Q 2591 3584 2966 3190 
Q 3341 2797 3341 1997 
z
" transform="scale(0.015625)"/>
       <path id="DejaVuSans-6e" d="M 3513 2113 
L 3513 0 
L 2938 0 
L 2938 2094 
Q 2938 2591 2744 2837 
Q 2550 3084 2163 3084 
Q 1697 3084 1428 2787 
Q 1159 2491 1159 1978 
L 1159 0 
L 581 0 
L 581 3500 
L 1159 3500 
L 1159 2956 
Q 1366 3272 1645 3428 
Q 1925 3584 2291 3584 
Q 2894 3584 3203 3211 
Q 3513 2838 3513 2113 
z
" transform="scale(0.015625)"/>
       <path id="DejaVuSans-67" d="M 2906 1791 
Q 2906 2416 2648 2759 
Q 2391 3103 1925 3103 
Q 1463 3103 1205 2759 
Q 947 2416 947 1791 
Q 947 1169 1205 825 
Q 1463 481 1925 481 
Q 2391 481 2648 825 
Q 2906 1169 2906 1791 
z
M 3481 434 
Q 3481 -459 3084 -895 
Q 2688 -1331 1869 -1331 
Q 1566 -1331 1297 -1286 
Q 1028 -1241 775 -1147 
L 775 -588 
Q 1028 -725 1275 -790 
Q 1522 -856 1778 -856 
Q 2344 -856 2625 -561 
Q 2906 -266 2906 331 
L 2906 616 
Q 2728 306 2450 153 
Q 2172 0 1784 0 
Q 1141 0 747 490 
Q 353 981 353 1791 
Q 353 2603 747 3093 
Q 1141 3584 1784 3584 
Q 2172 3584 2450 3431 
Q 2728 3278 2906 2969 
L 2906 3500 
L 3481 3500 
L 3481 434 
z
" transform="scale(0.015625)"/>
       <path id="DejaVuSans-79" d="M 2059 -325 
Q 1816 -950 1584 -1140 
Q 1353 -1331 966 -1331 
L 506 -1331 
L 506 -850 
L 844 -850 
Q 1081 -850 1212 -737 
Q 1344 -625 1503 -206 
L 1606 56 
L 191 3500 
L 800 3500 
L 1894 763 
L 2988 3500 
L 3597 3500 
L 2059 -325 
z
" transform="scale(0.015625)"/>
       <path id="DejaVuSans-28" d="M 1984 4856 
Q 1566 4138 1362 3434 
Q 1159 2731 1159 2009 
Q 1159 1288 1364 580 
Q 1569 -128 1984 -844 
L 1484 -844 
Q 1016 -109 783 600 
Q 550 1309 550 2009 
Q 550 2706 781 3412 
Q 1013 4119 1484 4856 
L 1984 4856 
z
" transform="scale(0.015625)"/>
       <path id="DejaVuSans-64" d="M 2906 2969 
L 2906 4863 
L 3481 4863 
L 3481 0 
L 2906 0 
L 2906 525 
Q 2725 213 2448 61 
Q 2172 -91 1784 -91 
Q 1150 -91 751 415 
Q 353 922 353 1747 
Q 353 2572 751 3078 
Q 1150 3584 1784 3584 
Q 2172 3584 2448 3432 
Q 2725 3281 2906 2969 
z
M 947 1747 
Q 947 1113 1208 752 
Q 1469 391 1925 391 
Q 2381 391 2643 752 
Q 2906 1113 2906 1747 
Q 2906 2381 2643 2742 
Q 2381 3103 1925 3103 
Q 1469 3103 1208 2742 
Q 947 2381 947 1747 
z
" transform="scale(0.015625)"/>
       <path id="DejaVuSans-3d" d="M 678 2906 
L 4684 2906 
L 4684 2381 
L 678 2381 
L 678 2906 
z
M 678 1631 
L 4684 1631 
L 4684 1100 
L 678 1100 
L 678 1631 
z
" transform="scale(0.015625)"/>
       <path id="DejaVuSans-29" d="M 513 4856 
L 1013 4856 
Q 1481 4119 1714 3412 
Q 1947 2706 1947 2009 
Q 1947 1309 1714 600 
Q 1481 -109 1013 -844 
L 513 -844 
Q 928 -128 1133 580 
Q 1338 1288 1338 2009 
Q 1338 2731 1133 3434 
Q 928 4138 513 4856 
z
" transform="scale(0.015625)"/>
      </defs>
      <use xlink:href="#DejaVuSans-45"/>
      <use xlink:href="#DejaVuSans-6c" x="63.183594"/>
      <use xlink:href="#DejaVuSans-65" x="90.966797"/>
      <use xlink:href="#DejaVuSans-63" x="152.490234"/>
      <use xlink:href="#DejaVuSans-74" x="207.470703"/>
      <use xlink:href="#DejaVuSans-72" x="246.679688"/>
      <use xlink:href="#DejaVuSans-61" x="287.792969"/>
      <use xlink:href="#DejaVuSans-73" x="349.072266"/>
      <use xlink:href="#DejaVuSans-74" x="401.171875"/>
      <use xlink:href="#DejaVuSans-69" x="440.380859"/>
      <use xlink:href="#DejaVuSans-63" x="468.164062"/>
      <use xlink:href="#DejaVuSans-20" x="523.144531"/>
      <use xlink:href="#DejaVuSans-45" x="554.931641"/>
      <use xlink:href="#DejaVuSans-6e" x="618.115234"/>
      <use xlink:href="#DejaVuSans-65" x="681.494141"/>
      <use xlink:href="#DejaVuSans-72" x="743.017578"/>
      <use xlink:href="#DejaVuSans-67" x="782.380859"/>
      <use xlink:href="#DejaVuSans-79" x="845.857422"/>
      <use xlink:href="#DejaVuSans-20" x="905.037109"/>
      <use xlink:href="#DejaVuSans-28" x="936.824219"/>
      <use xlink:href="#DejaVuSans-6f" x="975.837891"/>
      <use xlink:href="#DejaVuSans-72" x="1037.019531"/>
      <use xlink:href="#DejaVuSans-64" x="1076.382812"/>
      <use xlink:href="#DejaVuSans-65" x="1139.859375"/>
      <use xlink:href="#DejaVuSans-72" x="1201.382812"/>
      <use xlink:href="#DejaVuSans-20" x="1242.496094"/>
      <use xlink:href="#DejaVuSans-3d" x="1274.283203"/>
      <use xlink:href="#DejaVuSans-20" x="1358.072266"/>
      <use xlink:href="#DejaVuSans-32" x="1389.859375"/>
      <use xlink:href="#DejaVuSans-29" x="1453.482422"/>
     </g>
    </g>
   </g>
   <g id="patch_3">
    <path d="M 57.89 293.56 
L 57.89 10.8 
" style="fill: none; stroke: #000000; stroke-width: 0.8; stroke-linejoin: miter; stroke-linecap: square"/>
   </g>
   <g id="patch_4">
    <path d="M 450 293.56 
L 450 10.8 
" style="fill: none; stroke: #000000; stroke-width: 0.8; stroke-linejoin: miter; stroke-linecap: square"/>
   </g>
   <g id="patch_5">
    <path d="M 57.89 293.56 
L 450 293.56 
" style="fill: none; stroke: #000000; stroke-width: 0.8; stroke-linejoin: miter; stroke-linecap: square"/>
   </g>
   <g id="patch_6">
    <path d="M 57.89 10.8 
L 450 10.8 
" style="fill: none; stroke: #000000; stroke-width: 0.8; stroke-linejoin: miter; stroke-linecap: square"/>
   </g>
   <g id="legend_1">
    <g id="patch_7">
     <path d="M 66.99 97.52625 
L 201.399844 97.52625 
Q 203.999844 97.52625 203.999844 94.92625 
L 203.999844 19.9 
Q 203.999844 17.3 201.399844 17.3 
L 66.99 17.3 
Q 64.39 17.3 64.39 19.9 
L 64.39 94.92625 
Q 64.39 97.52625 66.99 97.52625 
z
" style="fill: #ffffff; opacity: 0.8; stroke: #cccccc; stroke-linejoin: miter"/>
    </g>
    <g id="PathCollection_5">
     <path d="M 82.59 32.865469 
C 83.624292 32.865469 84.616361 32.45454 85.347716 31.723185 
C 86.079071 30.99183 86.49 29.999761 86.49 28.965469 
C 86.49 27.931177 86.079071 26.939107 85.347716 26.207752 
C 84.616361 25.476397 83.624292 25.065469 82.59 25.065469 
C 81.555708 25.065469 80.563639 25.476397 79.832284 26.207752 
C 79.100929 26.939107 78.69 27.931177 78.69 28.965469 
C 78.69 29.999761 79.100929 30.99183 79.832284 31.723185 
C 80.563639 32.45454 81.555708 32.865469 82.59 32.865469 
L 82.59 32.865469 
z
" style="fill: none; stroke: #0000ff"/>
    </g>
    <g id="text_18">
     <!-- origin -->
     <g transform="translate(105.99 32.377969)scale(0.13 -0.13)">
      <use xlink:href="#DejaVuSans-6f"/>
      <use xlink:href="#DejaVuSans-72" x="61.181641"/>
      <use xlink:href="#DejaVuSans-69" x="102.294922"/>
      <use xlink:href="#DejaVuSans-67" x="130.078125"/>
      <use xlink:href="#DejaVuSans-69" x="193.554688"/>
      <use xlink:href="#DejaVuSans-6e" x="221.337891"/>
     </g>
    </g>
    <g id="PathCollection_6">
     <defs>
      <path id="mb7e3379391" d="M 0 -3.9 
L -3.9 3.9 
L 3.9 3.9 
z
" style="stroke: #ff0000"/>
     </defs>
     <g>
      <use xlink:href="#mb7e3379391" x="82.59" y="48.047031" style="fill: #ff0000; stroke: #ff0000"/>
     </g>
    </g>
    <g id="text_19">
     <!-- MILP-P-S(SC) -->
     <g transform="translate(105.99 51.459531)scale(0.13 -0.13)">
      <defs>
       <path id="DejaVuSans-4d" d="M 628 4666 
L 1569 4666 
L 2759 1491 
L 3956 4666 
L 4897 4666 
L 4897 0 
L 4281 0 
L 4281 4097 
L 3078 897 
L 2444 897 
L 1241 4097 
L 1241 0 
L 628 0 
L 628 4666 
z
" transform="scale(0.015625)"/>
       <path id="DejaVuSans-49" d="M 628 4666 
L 1259 4666 
L 1259 0 
L 628 0 
L 628 4666 
z
" transform="scale(0.015625)"/>
       <path id="DejaVuSans-4c" d="M 628 4666 
L 1259 4666 
L 1259 531 
L 3531 531 
L 3531 0 
L 628 0 
L 628 4666 
z
" transform="scale(0.015625)"/>
       <path id="DejaVuSans-50" d="M 1259 4147 
L 1259 2394 
L 2053 2394 
Q 2494 2394 2734 2622 
Q 2975 2850 2975 3272 
Q 2975 3691 2734 3919 
Q 2494 4147 2053 4147 
L 1259 4147 
z
M 628 4666 
L 2053 4666 
Q 2838 4666 3239 4311 
Q 3641 3956 3641 3272 
Q 3641 2581 3239 2228 
Q 2838 1875 2053 1875 
L 1259 1875 
L 1259 0 
L 628 0 
L 628 4666 
z
" transform="scale(0.015625)"/>
       <path id="DejaVuSans-2d" d="M 313 2009 
L 1997 2009 
L 1997 1497 
L 313 1497 
L 313 2009 
z
" transform="scale(0.015625)"/>
       <path id="DejaVuSans-43" d="M 4122 4306 
L 4122 3641 
Q 3803 3938 3442 4084 
Q 3081 4231 2675 4231 
Q 1875 4231 1450 3742 
Q 1025 3253 1025 2328 
Q 1025 1406 1450 917 
Q 1875 428 2675 428 
Q 3081 428 3442 575 
Q 3803 722 4122 1019 
L 4122 359 
Q 3791 134 3420 21 
Q 3050 -91 2638 -91 
Q 1578 -91 968 557 
Q 359 1206 359 2328 
Q 359 3453 968 4101 
Q 1578 4750 2638 4750 
Q 3056 4750 3426 4639 
Q 3797 4528 4122 4306 
z
" transform="scale(0.015625)"/>
      </defs>
      <use xlink:href="#DejaVuSans-4d"/>
      <use xlink:href="#DejaVuSans-49" x="86.279297"/>
      <use xlink:href="#DejaVuSans-4c" x="115.771484"/>
      <use xlink:href="#DejaVuSans-50" x="171.484375"/>
      <use xlink:href="#DejaVuSans-2d" x="229.537109"/>
      <use xlink:href="#DejaVuSans-50" x="265.621094"/>
      <use xlink:href="#DejaVuSans-2d" x="323.673828"/>
      <use xlink:href="#DejaVuSans-53" x="359.757812"/>
      <use xlink:href="#DejaVuSans-28" x="423.234375"/>
      <use xlink:href="#DejaVuSans-53" x="462.248047"/>
      <use xlink:href="#DejaVuSans-43" x="525.724609"/>
      <use xlink:href="#DejaVuSans-29" x="595.548828"/>
     </g>
    </g>
    <g id="PathCollection_7">
     <path d="M 82.59 63.228594 
L 78.69 71.028594 
L 86.49 71.028594 
L 82.59 63.228594 
z
" style="fill: none; stroke: #ff0000"/>
    </g>
    <g id="text_20">
     <!-- MILP-P-S(EEM) -->
     <g transform="translate(105.99 70.541094)scale(0.13 -0.13)">
      <use xlink:href="#DejaVuSans-4d"/>
      <use xlink:href="#DejaVuSans-49" x="86.279297"/>
      <use xlink:href="#DejaVuSans-4c" x="115.771484"/>
      <use xlink:href="#DejaVuSans-50" x="171.484375"/>
      <use xlink:href="#DejaVuSans-2d" x="229.537109"/>
      <use xlink:href="#DejaVuSans-50" x="265.621094"/>
      <use xlink:href="#DejaVuSans-2d" x="323.673828"/>
      <use xlink:href="#DejaVuSans-53" x="359.757812"/>
      <use xlink:href="#DejaVuSans-28" x="423.234375"/>
      <use xlink:href="#DejaVuSans-45" x="462.248047"/>
      <use xlink:href="#DejaVuSans-45" x="525.431641"/>
      <use xlink:href="#DejaVuSans-4d" x="588.615234"/>
      <use xlink:href="#DejaVuSans-29" x="674.894531"/>
     </g>
    </g>
    <g id="PathCollection_8">
     <path d="M 78.69 90.110156 
L 86.49 90.110156 
L 86.49 82.310156 
L 78.69 82.310156 
L 78.69 90.110156 
z
" style="fill: none; stroke: #bfbf00"/>
    </g>
    <g id="text_21">
     <!-- dirflip -->
     <g transform="translate(105.99 89.622656)scale(0.13 -0.13)">
      <defs>
       <path id="DejaVuSans-70" d="M 1159 525 
L 1159 -1331 
L 581 -1331 
L 581 3500 
L 1159 3500 
L 1159 2969 
Q 1341 3281 1617 3432 
Q 1894 3584 2278 3584 
Q 2916 3584 3314 3078 
Q 3713 2572 3713 1747 
Q 3713 922 3314 415 
Q 2916 -91 2278 -91 
Q 1894 -91 1617 61 
Q 1341 213 1159 525 
z
M 3116 1747 
Q 3116 2381 2855 2742 
Q 2594 3103 2138 3103 
Q 1681 3103 1420 2742 
Q 1159 2381 1159 1747 
Q 1159 1113 1420 752 
Q 1681 391 2138 391 
Q 2594 391 2855 752 
Q 3116 1113 3116 1747 
z
" transform="scale(0.015625)"/>
      </defs>
      <use xlink:href="#DejaVuSans-64"/>
      <use xlink:href="#DejaVuSans-69" x="63.476562"/>
      <use xlink:href="#DejaVuSans-72" x="91.259766"/>
      <use xlink:href="#DejaVuSans-66" x="132.373047"/>
      <use xlink:href="#DejaVuSans-6c" x="167.578125"/>
      <use xlink:href="#DejaVuSans-69" x="195.361328"/>
      <use xlink:href="#DejaVuSans-70" x="223.144531"/>
     </g>
    </g>
   </g>
  </g>
 </g>
 <defs>
  <clipPath id="p401278efb8">
   <rect x="57.89" y="10.8" width="392.11" height="282.76"/>
  </clipPath>
 </defs>
</svg>
