<?xml version="1.0" encoding="utf-8" standalone="no"?>
<!DOCTYPE svg PUBLIC "-//W3C//DTD SVG 1.1//EN"
  "http://www.w3.org/Graphics/SVG/1.1/DTD/svg11.dtd">
<svg xmlns:xlink="http://www.w3.org/1999/xlink" width="460.8pt" height="345.6pt" viewBox="0 0 460.8 345.6" xmlns="http://www.w3.org/2000/svg" version="1.1">
 <metadata>
  <rdf:RDF xmlns:dc="http://purl.org/dc/elements/1.1/" xmlns:cc="http://creativecommons.org/ns#" xmlns:rdf="http://www.w3.org/1999/02/22-rdf-syntax-ns#">
   <cc:Work>
    <dc:type rdf:resource="http://purl.org/dc/dcmitype/StillImage"/>
    <dc:date>2024-09-27T09:45:30.422008</dc:date>
    <dc:format>image/svg+xml</dc:format>
    <dc:creator>
     <cc:Agent>
      <dc:title>Matplotlib v3.5.2, https://matplotlib.org/</dc:title>
     </cc:Agent>
    </dc:creator>
   </cc:Work>
  </rdf:RDF>
 </metadata>
 <defs>
  <style type="text/css">*{stroke-linejoin: round; stroke-linecap: butt}</style>
 </defs>
 <g id="figure_1">
  <g id="patch_1">
   <path d="M 0 345.6 
L 460.8 345.6 
L 460.8 0 
L 0 0 
z
" style="fill: #ffffff"/>
  </g>
  <g id="axes_1">
   <g id="patch_2">
    <path d="M 57.89 293.56 
L 450 293.56 
L 450 10.8 
L 57.89 10.8 
z
" style="fill: #ffffff"/>
   </g>
   <g id="PathCollection_1">
    <defs>
     <path id="C0_0_dd94755714" d="M 0 3 
C 0.795609 3 1.55874 2.683901 2.12132 2.12132 
C 2.683901 1.55874 3 0.795609 3 -0 
C 3 -0.795609 2.683901 -1.55874 2.12132 -2.12132 
C 1.55874 -2.683901 0.795609 -3 0 -3 
C -0.795609 -3 -1.55874 -2.683901 -2.12132 -2.12132 
C -2.683901 -1.55874 -3 -0.795609 -3 0 
C -3 0.795609 -2.683901 1.55874 -2.12132 2.12132 
C -1.55874 2.683901 -0.795609 3 0 3 
z
"/>
    </defs>
    <g clip-path="url(#p85b4fab8ad)">
     <use xlink:href="#C0_0_dd94755714" x="75.713182" y="65.664948" style="fill: none; stroke: #0000ff"/>
    </g>
    <g clip-path="url(#p85b4fab8ad)">
     <use xlink:href="#C0_0_dd94755714" x="90.565833" y="58.159106" style="fill: none; stroke: #0000ff"/>
    </g>
    <g clip-path="url(#p85b4fab8ad)">
     <use xlink:href="#C0_0_dd94755714" x="105.418485" y="64.858173" style="fill: none; stroke: #0000ff"/>
    </g>
    <g clip-path="url(#p85b4fab8ad)">
     <use xlink:href="#C0_0_dd94755714" x="120.271136" y="72.850367" style="fill: none; stroke: #0000ff"/>
    </g>
    <g clip-path="url(#p85b4fab8ad)">
     <use xlink:href="#C0_0_dd94755714" x="135.123788" y="212.461448" style="fill: none; stroke: #0000ff"/>
    </g>
    <g clip-path="url(#p85b4fab8ad)">
     <use xlink:href="#C0_0_dd94755714" x="149.976439" y="23.712179" style="fill: none; stroke: #0000ff"/>
    </g>
    <g clip-path="url(#p85b4fab8ad)">
     <use xlink:href="#C0_0_dd94755714" x="164.829091" y="42.072035" style="fill: none; stroke: #0000ff"/>
    </g>
    <g clip-path="url(#p85b4fab8ad)">
     <use xlink:href="#C0_0_dd94755714" x="179.681742" y="85.43159" style="fill: none; stroke: #0000ff"/>
    </g>
    <g clip-path="url(#p85b4fab8ad)">
     <use xlink:href="#C0_0_dd94755714" x="194.534394" y="110.398445" style="fill: none; stroke: #0000ff"/>
    </g>
    <g clip-path="url(#p85b4fab8ad)">
     <use xlink:href="#C0_0_dd94755714" x="209.387045" y="26.956076" style="fill: none; stroke: #0000ff"/>
    </g>
    <g clip-path="url(#p85b4fab8ad)">
     <use xlink:href="#C0_0_dd94755714" x="224.239697" y="23.652727" style="fill: none; stroke: #0000ff"/>
    </g>
    <g clip-path="url(#p85b4fab8ad)">
     <use xlink:href="#C0_0_dd94755714" x="239.092348" y="38.616425" style="fill: none; stroke: #0000ff"/>
    </g>
    <g clip-path="url(#p85b4fab8ad)">
     <use xlink:href="#C0_0_dd94755714" x="253.945" y="26.272993" style="fill: none; stroke: #0000ff"/>
    </g>
    <g clip-path="url(#p85b4fab8ad)">
     <use xlink:href="#C0_0_dd94755714" x="268.797652" y="30.162787" style="fill: none; stroke: #0000ff"/>
    </g>
    <g clip-path="url(#p85b4fab8ad)">
     <use xlink:href="#C0_0_dd94755714" x="283.650303" y="43.678834" style="fill: none; stroke: #0000ff"/>
    </g>
    <g clip-path="url(#p85b4fab8ad)">
     <use xlink:href="#C0_0_dd94755714" x="298.502955" y="29.160848" style="fill: none; stroke: #0000ff"/>
    </g>
    <g clip-path="url(#p85b4fab8ad)">
     <use xlink:href="#C0_0_dd94755714" x="313.355606" y="80.951956" style="fill: none; stroke: #0000ff"/>
    </g>
    <g clip-path="url(#p85b4fab8ad)">
     <use xlink:href="#C0_0_dd94755714" x="328.208258" y="75.832137" style="fill: none; stroke: #0000ff"/>
    </g>
    <g clip-path="url(#p85b4fab8ad)">
     <use xlink:href="#C0_0_dd94755714" x="343.060909" y="37.733" style="fill: none; stroke: #0000ff"/>
    </g>
    <g clip-path="url(#p85b4fab8ad)">
     <use xlink:href="#C0_0_dd94755714" x="357.913561" y="47.595468" style="fill: none; stroke: #0000ff"/>
    </g>
    <g clip-path="url(#p85b4fab8ad)">
     <use xlink:href="#C0_0_dd94755714" x="372.766212" y="35.57785" style="fill: none; stroke: #0000ff"/>
    </g>
    <g clip-path="url(#p85b4fab8ad)">
     <use xlink:href="#C0_0_dd94755714" x="387.618864" y="33.016766" style="fill: none; stroke: #0000ff"/>
    </g>
    <g clip-path="url(#p85b4fab8ad)">
     <use xlink:href="#C0_0_dd94755714" x="402.471515" y="26.211375" style="fill: none; stroke: #0000ff"/>
    </g>
    <g clip-path="url(#p85b4fab8ad)">
     <use xlink:href="#C0_0_dd94755714" x="417.324167" y="67.000406" style="fill: none; stroke: #0000ff"/>
    </g>
    <g clip-path="url(#p85b4fab8ad)">
     <use xlink:href="#C0_0_dd94755714" x="432.176818" y="29.098563" style="fill: none; stroke: #0000ff"/>
    </g>
   </g>
   <g id="PathCollection_2">
    <defs>
     <path id="m4a277c7ec1" d="M 0 -3 
L -3 3 
L 3 3 
z
" style="stroke: #ff0000"/>
    </defs>
    <g clip-path="url(#p85b4fab8ad)">
     <use xlink:href="#m4a277c7ec1" x="75.713182" y="163.618426" style="fill: #ff0000; stroke: #ff0000"/>
     <use xlink:href="#m4a277c7ec1" x="90.565833" y="240.710628" style="fill: #ff0000; stroke: #ff0000"/>
     <use xlink:href="#m4a277c7ec1" x="105.418485" y="220.664424" style="fill: #ff0000; stroke: #ff0000"/>
     <use xlink:href="#m4a277c7ec1" x="120.271136" y="196.341024" style="fill: #ff0000; stroke: #ff0000"/>
     <use xlink:href="#m4a277c7ec1" x="135.123788" y="247.61536" style="fill: #ff0000; stroke: #ff0000"/>
     <use xlink:href="#m4a277c7ec1" x="149.976439" y="251.183245" style="fill: #ff0000; stroke: #ff0000"/>
     <use xlink:href="#m4a277c7ec1" x="164.829091" y="166.366466" style="fill: #ff0000; stroke: #ff0000"/>
     <use xlink:href="#m4a277c7ec1" x="179.681742" y="99.932411" style="fill: #ff0000; stroke: #ff0000"/>
     <use xlink:href="#m4a277c7ec1" x="194.534394" y="266.228303" style="fill: #ff0000; stroke: #ff0000"/>
     <use xlink:href="#m4a277c7ec1" x="209.387045" y="249.757693" style="fill: #ff0000; stroke: #ff0000"/>
     <use xlink:href="#m4a277c7ec1" x="224.239697" y="121.23312" style="fill: #ff0000; stroke: #ff0000"/>
     <use xlink:href="#m4a277c7ec1" x="239.092348" y="239.498063" style="fill: #ff0000; stroke: #ff0000"/>
     <use xlink:href="#m4a277c7ec1" x="253.945" y="246.664092" style="fill: #ff0000; stroke: #ff0000"/>
     <use xlink:href="#m4a277c7ec1" x="268.797652" y="154.085145" style="fill: #ff0000; stroke: #ff0000"/>
     <use xlink:href="#m4a277c7ec1" x="283.650303" y="182.479243" style="fill: #ff0000; stroke: #ff0000"/>
     <use xlink:href="#m4a277c7ec1" x="298.502955" y="110.61919" style="fill: #ff0000; stroke: #ff0000"/>
     <use xlink:href="#m4a277c7ec1" x="313.355606" y="143.049208" style="fill: #ff0000; stroke: #ff0000"/>
     <use xlink:href="#m4a277c7ec1" x="328.208258" y="174.58132" style="fill: #ff0000; stroke: #ff0000"/>
     <use xlink:href="#m4a277c7ec1" x="343.060909" y="112.222153" style="fill: #ff0000; stroke: #ff0000"/>
     <use xlink:href="#m4a277c7ec1" x="357.913561" y="47.595468" style="fill: #ff0000; stroke: #ff0000"/>
     <use xlink:href="#m4a277c7ec1" x="372.766212" y="35.57785" style="fill: #ff0000; stroke: #ff0000"/>
     <use xlink:href="#m4a277c7ec1" x="387.618864" y="161.62208" style="fill: #ff0000; stroke: #ff0000"/>
     <use xlink:href="#m4a277c7ec1" x="402.471515" y="73.340616" style="fill: #ff0000; stroke: #ff0000"/>
     <use xlink:href="#m4a277c7ec1" x="417.324167" y="97.307197" style="fill: #ff0000; stroke: #ff0000"/>
     <use xlink:href="#m4a277c7ec1" x="432.176818" y="163.234765" style="fill: #ff0000; stroke: #ff0000"/>
    </g>
   </g>
   <g id="PathCollection_3">
    <path d="M 75.713182 225.649402 
L 72.713182 231.649402 
L 78.713182 231.649402 
L 75.713182 225.649402 
z
" clip-path="url(#p85b4fab8ad)" style="fill: none; stroke: #ff0000"/>
    <path d="M 90.565833 257.039918 
L 87.565833 263.039918 
L 93.565833 263.039918 
L 90.565833 257.039918 
z
" clip-path="url(#p85b4fab8ad)" style="fill: none; stroke: #ff0000"/>
    <path d="M 105.418485 258.125204 
L 102.418485 264.125204 
L 108.418485 264.125204 
L 105.418485 258.125204 
z
" clip-path="url(#p85b4fab8ad)" style="fill: none; stroke: #ff0000"/>
    <path d="M 120.271136 275.66437 
L 117.271136 281.66437 
L 123.271136 281.66437 
L 120.271136 275.66437 
z
" clip-path="url(#p85b4fab8ad)" style="fill: none; stroke: #ff0000"/>
    <path d="M 135.123788 266.803764 
L 132.123788 272.803764 
L 138.123788 272.803764 
L 135.123788 266.803764 
z
" clip-path="url(#p85b4fab8ad)" style="fill: none; stroke: #ff0000"/>
    <path d="M 149.976439 267.548457 
L 146.976439 273.548457 
L 152.976439 273.548457 
L 149.976439 267.548457 
z
" clip-path="url(#p85b4fab8ad)" style="fill: none; stroke: #ff0000"/>
    <path d="M 164.829091 263.262968 
L 161.829091 269.262968 
L 167.829091 269.262968 
L 164.829091 263.262968 
z
" clip-path="url(#p85b4fab8ad)" style="fill: none; stroke: #ff0000"/>
    <path d="M 179.681742 271.958861 
L 176.681742 277.958861 
L 182.681742 277.958861 
L 179.681742 271.958861 
z
" clip-path="url(#p85b4fab8ad)" style="fill: none; stroke: #ff0000"/>
    <path d="M 194.534394 272.504108 
L 191.534394 278.504108 
L 197.534394 278.504108 
L 194.534394 272.504108 
z
" clip-path="url(#p85b4fab8ad)" style="fill: none; stroke: #ff0000"/>
    <path d="M 209.387045 273.333069 
L 206.387045 279.333069 
L 212.387045 279.333069 
L 209.387045 273.333069 
z
" clip-path="url(#p85b4fab8ad)" style="fill: none; stroke: #ff0000"/>
    <path d="M 224.239697 274.939444 
L 221.239697 280.939444 
L 227.239697 280.939444 
L 224.239697 274.939444 
z
" clip-path="url(#p85b4fab8ad)" style="fill: none; stroke: #ff0000"/>
    <path d="M 239.092348 266.049514 
L 236.092348 272.049514 
L 242.092348 272.049514 
L 239.092348 266.049514 
z
" clip-path="url(#p85b4fab8ad)" style="fill: none; stroke: #ff0000"/>
    <path d="M 253.945 274.344598 
L 250.945 280.344598 
L 256.945 280.344598 
L 253.945 274.344598 
z
" clip-path="url(#p85b4fab8ad)" style="fill: none; stroke: #ff0000"/>
    <path d="M 268.797652 272.838174 
L 265.797652 278.838174 
L 271.797652 278.838174 
L 268.797652 272.838174 
z
" clip-path="url(#p85b4fab8ad)" style="fill: none; stroke: #ff0000"/>
    <path d="M 283.650303 274.186653 
L 280.650303 280.186653 
L 286.650303 280.186653 
L 283.650303 274.186653 
z
" clip-path="url(#p85b4fab8ad)" style="fill: none; stroke: #ff0000"/>
    <path d="M 298.502955 277.707273 
L 295.502955 283.707273 
L 301.502955 283.707273 
L 298.502955 277.707273 
z
" clip-path="url(#p85b4fab8ad)" style="fill: none; stroke: #ff0000"/>
    <path d="M 313.355606 277.069732 
L 310.355606 283.069732 
L 316.355606 283.069732 
L 313.355606 277.069732 
z
" clip-path="url(#p85b4fab8ad)" style="fill: none; stroke: #ff0000"/>
    <path d="M 328.208258 275.694825 
L 325.208258 281.694825 
L 331.208258 281.694825 
L 328.208258 275.694825 
z
" clip-path="url(#p85b4fab8ad)" style="fill: none; stroke: #ff0000"/>
    <path d="M 343.060909 272.077041 
L 340.060909 278.077041 
L 346.060909 278.077041 
L 343.060909 272.077041 
z
" clip-path="url(#p85b4fab8ad)" style="fill: none; stroke: #ff0000"/>
    <path d="M 357.913561 269.981756 
L 354.913561 275.981756 
L 360.913561 275.981756 
L 357.913561 269.981756 
z
" clip-path="url(#p85b4fab8ad)" style="fill: none; stroke: #ff0000"/>
    <path d="M 372.766212 273.850938 
L 369.766212 279.850938 
L 375.766212 279.850938 
L 372.766212 273.850938 
z
" clip-path="url(#p85b4fab8ad)" style="fill: none; stroke: #ff0000"/>
    <path d="M 387.618864 275.458575 
L 384.618864 281.458575 
L 390.618864 281.458575 
L 387.618864 275.458575 
z
" clip-path="url(#p85b4fab8ad)" style="fill: none; stroke: #ff0000"/>
    <path d="M 402.471515 276.715785 
L 399.471515 282.715785 
L 405.471515 282.715785 
L 402.471515 276.715785 
z
" clip-path="url(#p85b4fab8ad)" style="fill: none; stroke: #ff0000"/>
    <path d="M 417.324167 274.588216 
L 414.324167 280.588216 
L 420.324167 280.588216 
L 417.324167 274.588216 
z
" clip-path="url(#p85b4fab8ad)" style="fill: none; stroke: #ff0000"/>
    <path d="M 432.176818 275.554494 
L 429.176818 281.554494 
L 435.176818 281.554494 
L 432.176818 275.554494 
z
" clip-path="url(#p85b4fab8ad)" style="fill: none; stroke: #ff0000"/>
   </g>
   <g id="PathCollection_4">
    <defs>
     <path id="C1_0_9c2b561356" d="M -3 3 
L 3 3 
L 3 -3 
L -3 -3 
z
"/>
    </defs>
    <g clip-path="url(#p85b4fab8ad)">
     <use xlink:href="#C1_0_9c2b561356" x="75.713182" y="228.649435" style="fill: none; stroke: #bfbf00"/>
    </g>
    <g clip-path="url(#p85b4fab8ad)">
     <use xlink:href="#C1_0_9c2b561356" x="90.565833" y="260.039959" style="fill: none; stroke: #bfbf00"/>
    </g>
    <g clip-path="url(#p85b4fab8ad)">
     <use xlink:href="#C1_0_9c2b561356" x="105.418485" y="261.125101" style="fill: none; stroke: #bfbf00"/>
    </g>
    <g clip-path="url(#p85b4fab8ad)">
     <use xlink:href="#C1_0_9c2b561356" x="120.271136" y="268.749179" style="fill: none; stroke: #bfbf00"/>
    </g>
    <g clip-path="url(#p85b4fab8ad)">
     <use xlink:href="#C1_0_9c2b561356" x="135.123788" y="265.250174" style="fill: none; stroke: #bfbf00"/>
    </g>
    <g clip-path="url(#p85b4fab8ad)">
     <use xlink:href="#C1_0_9c2b561356" x="149.976439" y="260.328064" style="fill: none; stroke: #bfbf00"/>
    </g>
    <g clip-path="url(#p85b4fab8ad)">
     <use xlink:href="#C1_0_9c2b561356" x="164.829091" y="267.728382" style="fill: none; stroke: #bfbf00"/>
    </g>
    <g clip-path="url(#p85b4fab8ad)">
     <use xlink:href="#C1_0_9c2b561356" x="179.681742" y="269.663442" style="fill: none; stroke: #bfbf00"/>
    </g>
    <g clip-path="url(#p85b4fab8ad)">
     <use xlink:href="#C1_0_9c2b561356" x="194.534394" y="277.446577" style="fill: none; stroke: #bfbf00"/>
    </g>
    <g clip-path="url(#p85b4fab8ad)">
     <use xlink:href="#C1_0_9c2b561356" x="209.387045" y="277.401978" style="fill: none; stroke: #bfbf00"/>
    </g>
    <g clip-path="url(#p85b4fab8ad)">
     <use xlink:href="#C1_0_9c2b561356" x="224.239697" y="277.661061" style="fill: none; stroke: #bfbf00"/>
    </g>
    <g clip-path="url(#p85b4fab8ad)">
     <use xlink:href="#C1_0_9c2b561356" x="239.092348" y="267.522534" style="fill: none; stroke: #bfbf00"/>
    </g>
    <g clip-path="url(#p85b4fab8ad)">
     <use xlink:href="#C1_0_9c2b561356" x="253.945" y="274.09276" style="fill: none; stroke: #bfbf00"/>
    </g>
    <g clip-path="url(#p85b4fab8ad)">
     <use xlink:href="#C1_0_9c2b561356" x="268.797652" y="271.709476" style="fill: none; stroke: #bfbf00"/>
    </g>
    <g clip-path="url(#p85b4fab8ad)">
     <use xlink:href="#C1_0_9c2b561356" x="283.650303" y="274.055018" style="fill: none; stroke: #bfbf00"/>
    </g>
    <g clip-path="url(#p85b4fab8ad)">
     <use xlink:href="#C1_0_9c2b561356" x="298.502955" y="277.706367" style="fill: none; stroke: #bfbf00"/>
    </g>
    <g clip-path="url(#p85b4fab8ad)">
     <use xlink:href="#C1_0_9c2b561356" x="313.355606" y="273.530467" style="fill: none; stroke: #bfbf00"/>
    </g>
    <g clip-path="url(#p85b4fab8ad)">
     <use xlink:href="#C1_0_9c2b561356" x="328.208258" y="268.635445" style="fill: none; stroke: #bfbf00"/>
    </g>
    <g clip-path="url(#p85b4fab8ad)">
     <use xlink:href="#C1_0_9c2b561356" x="343.060909" y="275.124701" style="fill: none; stroke: #bfbf00"/>
    </g>
    <g clip-path="url(#p85b4fab8ad)">
     <use xlink:href="#C1_0_9c2b561356" x="357.913561" y="275.043771" style="fill: none; stroke: #bfbf00"/>
    </g>
    <g clip-path="url(#p85b4fab8ad)">
     <use xlink:href="#C1_0_9c2b561356" x="372.766212" y="277.940635" style="fill: none; stroke: #bfbf00"/>
    </g>
    <g clip-path="url(#p85b4fab8ad)">
     <use xlink:href="#C1_0_9c2b561356" x="387.618864" y="273.507053" style="fill: none; stroke: #bfbf00"/>
    </g>
    <g clip-path="url(#p85b4fab8ad)">
     <use xlink:href="#C1_0_9c2b561356" x="402.471515" y="272.959972" style="fill: none; stroke: #bfbf00"/>
    </g>
    <g clip-path="url(#p85b4fab8ad)">
     <use xlink:href="#C1_0_9c2b561356" x="417.324167" y="279.373791" style="fill: none; stroke: #bfbf00"/>
    </g>
    <g clip-path="url(#p85b4fab8ad)">
     <use xlink:href="#C1_0_9c2b561356" x="432.176818" y="269.845734" style="fill: none; stroke: #bfbf00"/>
    </g>
   </g>
   <g id="matplotlib.axis_1">
    <g id="xtick_1">
     <g id="line2d_1">
      <defs>
       <path id="m04de979e35" d="M 0 0 
L 0 3.5 
" style="stroke: #000000; stroke-width: 0.8"/>
      </defs>
      <g>
       <use xlink:href="#m04de979e35" x="60.86053" y="293.56" style="stroke: #000000; stroke-width: 0.8"/>
      </g>
     </g>
     <g id="text_1">
      <!-- 0 -->
      <g transform="translate(57.67928 308.158437)scale(0.1 -0.1)">
       <defs>
        <path id="DejaVuSans-30" d="M 2034 4250 
Q 1547 4250 1301 3770 
Q 1056 3291 1056 2328 
Q 1056 1369 1301 889 
Q 1547 409 2034 409 
Q 2525 409 2770 889 
Q 3016 1369 3016 2328 
Q 3016 3291 2770 3770 
Q 2525 4250 2034 4250 
z
M 2034 4750 
Q 2819 4750 3233 4129 
Q 3647 3509 3647 2328 
Q 3647 1150 3233 529 
Q 2819 -91 2034 -91 
Q 1250 -91 836 529 
Q 422 1150 422 2328 
Q 422 3509 836 4129 
Q 1250 4750 2034 4750 
z
" transform="scale(0.015625)"/>
       </defs>
       <use xlink:href="#DejaVuSans-30"/>
      </g>
     </g>
    </g>
    <g id="xtick_2">
     <g id="line2d_2">
      <g>
       <use xlink:href="#m04de979e35" x="135.123788" y="293.56" style="stroke: #000000; stroke-width: 0.8"/>
      </g>
     </g>
     <g id="text_2">
      <!-- 50 -->
      <g transform="translate(128.761288 308.158437)scale(0.1 -0.1)">
       <defs>
        <path id="DejaVuSans-35" d="M 691 4666 
L 3169 4666 
L 3169 4134 
L 1269 4134 
L 1269 2991 
Q 1406 3038 1543 3061 
Q 1681 3084 1819 3084 
Q 2600 3084 3056 2656 
Q 3513 2228 3513 1497 
Q 3513 744 3044 326 
Q 2575 -91 1722 -91 
Q 1428 -91 1123 -41 
Q 819 9 494 109 
L 494 744 
Q 775 591 1075 516 
Q 1375 441 1709 441 
Q 2250 441 2565 725 
Q 2881 1009 2881 1497 
Q 2881 1984 2565 2268 
Q 2250 2553 1709 2553 
Q 1456 2553 1204 2497 
Q 953 2441 691 2322 
L 691 4666 
z
" transform="scale(0.015625)"/>
       </defs>
       <use xlink:href="#DejaVuSans-35"/>
       <use xlink:href="#DejaVuSans-30" x="63.623047"/>
      </g>
     </g>
    </g>
    <g id="xtick_3">
     <g id="line2d_3">
      <g>
       <use xlink:href="#m04de979e35" x="209.387045" y="293.56" style="stroke: #000000; stroke-width: 0.8"/>
      </g>
     </g>
     <g id="text_3">
      <!-- 100 -->
      <g transform="translate(199.843295 308.158437)scale(0.1 -0.1)">
       <defs>
        <path id="DejaVuSans-31" d="M 794 531 
L 1825 531 
L 1825 4091 
L 703 3866 
L 703 4441 
L 1819 4666 
L 2450 4666 
L 2450 531 
L 3481 531 
L 3481 0 
L 794 0 
L 794 531 
z
" transform="scale(0.015625)"/>
       </defs>
       <use xlink:href="#DejaVuSans-31"/>
       <use xlink:href="#DejaVuSans-30" x="63.623047"/>
       <use xlink:href="#DejaVuSans-30" x="127.246094"/>
      </g>
     </g>
    </g>
    <g id="xtick_4">
     <g id="line2d_4">
      <g>
       <use xlink:href="#m04de979e35" x="283.650303" y="293.56" style="stroke: #000000; stroke-width: 0.8"/>
      </g>
     </g>
     <g id="text_4">
      <!-- 150 -->
      <g transform="translate(274.106553 308.158437)scale(0.1 -0.1)">
       <use xlink:href="#DejaVuSans-31"/>
       <use xlink:href="#DejaVuSans-35" x="63.623047"/>
       <use xlink:href="#DejaVuSans-30" x="127.246094"/>
      </g>
     </g>
    </g>
    <g id="xtick_5">
     <g id="line2d_5">
      <g>
       <use xlink:href="#m04de979e35" x="357.913561" y="293.56" style="stroke: #000000; stroke-width: 0.8"/>
      </g>
     </g>
     <g id="text_5">
      <!-- 200 -->
      <g transform="translate(348.369811 308.158437)scale(0.1 -0.1)">
       <defs>
        <path id="DejaVuSans-32" d="M 1228 531 
L 3431 531 
L 3431 0 
L 469 0 
L 469 531 
Q 828 903 1448 1529 
Q 2069 2156 2228 2338 
Q 2531 2678 2651 2914 
Q 2772 3150 2772 3378 
Q 2772 3750 2511 3984 
Q 2250 4219 1831 4219 
Q 1534 4219 1204 4116 
Q 875 4013 500 3803 
L 500 4441 
Q 881 4594 1212 4672 
Q 1544 4750 1819 4750 
Q 2544 4750 2975 4387 
Q 3406 4025 3406 3419 
Q 3406 3131 3298 2873 
Q 3191 2616 2906 2266 
Q 2828 2175 2409 1742 
Q 1991 1309 1228 531 
z
" transform="scale(0.015625)"/>
       </defs>
       <use xlink:href="#DejaVuSans-32"/>
       <use xlink:href="#DejaVuSans-30" x="63.623047"/>
       <use xlink:href="#DejaVuSans-30" x="127.246094"/>
      </g>
     </g>
    </g>
    <g id="xtick_6">
     <g id="line2d_6">
      <g>
       <use xlink:href="#m04de979e35" x="432.176818" y="293.56" style="stroke: #000000; stroke-width: 0.8"/>
      </g>
     </g>
     <g id="text_6">
      <!-- 250 -->
      <g transform="translate(422.633068 308.158437)scale(0.1 -0.1)">
       <use xlink:href="#DejaVuSans-32"/>
       <use xlink:href="#DejaVuSans-35" x="63.623047"/>
       <use xlink:href="#DejaVuSans-30" x="127.246094"/>
      </g>
     </g>
    </g>
    <g id="text_7">
     <!-- Size of subset K -->
     <g transform="translate(174.5075 329.435)scale(0.2 -0.2)">
      <defs>
       <path id="DejaVuSans-53" d="M 3425 4513 
L 3425 3897 
Q 3066 4069 2747 4153 
Q 2428 4238 2131 4238 
Q 1616 4238 1336 4038 
Q 1056 3838 1056 3469 
Q 1056 3159 1242 3001 
Q 1428 2844 1947 2747 
L 2328 2669 
Q 3034 2534 3370 2195 
Q 3706 1856 3706 1288 
Q 3706 609 3251 259 
Q 2797 -91 1919 -91 
Q 1588 -91 1214 -16 
Q 841 59 441 206 
L 441 856 
Q 825 641 1194 531 
Q 1563 422 1919 422 
Q 2459 422 2753 634 
Q 3047 847 3047 1241 
Q 3047 1584 2836 1778 
Q 2625 1972 2144 2069 
L 1759 2144 
Q 1053 2284 737 2584 
Q 422 2884 422 3419 
Q 422 4038 858 4394 
Q 1294 4750 2059 4750 
Q 2388 4750 2728 4690 
Q 3069 4631 3425 4513 
z
" transform="scale(0.015625)"/>
       <path id="DejaVuSans-69" d="M 603 3500 
L 1178 3500 
L 1178 0 
L 603 0 
L 603 3500 
z
M 603 4863 
L 1178 4863 
L 1178 4134 
L 603 4134 
L 603 4863 
z
" transform="scale(0.015625)"/>
       <path id="DejaVuSans-7a" d="M 353 3500 
L 3084 3500 
L 3084 2975 
L 922 459 
L 3084 459 
L 3084 0 
L 275 0 
L 275 525 
L 2438 3041 
L 353 3041 
L 353 3500 
z
" transform="scale(0.015625)"/>
       <path id="DejaVuSans-65" d="M 3597 1894 
L 3597 1613 
L 953 1613 
Q 991 1019 1311 708 
Q 1631 397 2203 397 
Q 2534 397 2845 478 
Q 3156 559 3463 722 
L 3463 178 
Q 3153 47 2828 -22 
Q 2503 -91 2169 -91 
Q 1331 -91 842 396 
Q 353 884 353 1716 
Q 353 2575 817 3079 
Q 1281 3584 2069 3584 
Q 2775 3584 3186 3129 
Q 3597 2675 3597 1894 
z
M 3022 2063 
Q 3016 2534 2758 2815 
Q 2500 3097 2075 3097 
Q 1594 3097 1305 2825 
Q 1016 2553 972 2059 
L 3022 2063 
z
" transform="scale(0.015625)"/>
       <path id="DejaVuSans-20" transform="scale(0.015625)"/>
       <path id="DejaVuSans-6f" d="M 1959 3097 
Q 1497 3097 1228 2736 
Q 959 2375 959 1747 
Q 959 1119 1226 758 
Q 1494 397 1959 397 
Q 2419 397 2687 759 
Q 2956 1122 2956 1747 
Q 2956 2369 2687 2733 
Q 2419 3097 1959 3097 
z
M 1959 3584 
Q 2709 3584 3137 3096 
Q 3566 2609 3566 1747 
Q 3566 888 3137 398 
Q 2709 -91 1959 -91 
Q 1206 -91 779 398 
Q 353 888 353 1747 
Q 353 2609 779 3096 
Q 1206 3584 1959 3584 
z
" transform="scale(0.015625)"/>
       <path id="DejaVuSans-66" d="M 2375 4863 
L 2375 4384 
L 1825 4384 
Q 1516 4384 1395 4259 
Q 1275 4134 1275 3809 
L 1275 3500 
L 2222 3500 
L 2222 3053 
L 1275 3053 
L 1275 0 
L 697 0 
L 697 3053 
L 147 3053 
L 147 3500 
L 697 3500 
L 697 3744 
Q 697 4328 969 4595 
Q 1241 4863 1831 4863 
L 2375 4863 
z
" transform="scale(0.015625)"/>
       <path id="DejaVuSans-73" d="M 2834 3397 
L 2834 2853 
Q 2591 2978 2328 3040 
Q 2066 3103 1784 3103 
Q 1356 3103 1142 2972 
Q 928 2841 928 2578 
Q 928 2378 1081 2264 
Q 1234 2150 1697 2047 
L 1894 2003 
Q 2506 1872 2764 1633 
Q 3022 1394 3022 966 
Q 3022 478 2636 193 
Q 2250 -91 1575 -91 
Q 1294 -91 989 -36 
Q 684 19 347 128 
L 347 722 
Q 666 556 975 473 
Q 1284 391 1588 391 
Q 1994 391 2212 530 
Q 2431 669 2431 922 
Q 2431 1156 2273 1281 
Q 2116 1406 1581 1522 
L 1381 1569 
Q 847 1681 609 1914 
Q 372 2147 372 2553 
Q 372 3047 722 3315 
Q 1072 3584 1716 3584 
Q 2034 3584 2315 3537 
Q 2597 3491 2834 3397 
z
" transform="scale(0.015625)"/>
       <path id="DejaVuSans-75" d="M 544 1381 
L 544 3500 
L 1119 3500 
L 1119 1403 
Q 1119 906 1312 657 
Q 1506 409 1894 409 
Q 2359 409 2629 706 
Q 2900 1003 2900 1516 
L 2900 3500 
L 3475 3500 
L 3475 0 
L 2900 0 
L 2900 538 
Q 2691 219 2414 64 
Q 2138 -91 1772 -91 
Q 1169 -91 856 284 
Q 544 659 544 1381 
z
M 1991 3584 
L 1991 3584 
z
" transform="scale(0.015625)"/>
       <path id="DejaVuSans-62" d="M 3116 1747 
Q 3116 2381 2855 2742 
Q 2594 3103 2138 3103 
Q 1681 3103 1420 2742 
Q 1159 2381 1159 1747 
Q 1159 1113 1420 752 
Q 1681 391 2138 391 
Q 2594 391 2855 752 
Q 3116 1113 3116 1747 
z
M 1159 2969 
Q 1341 3281 1617 3432 
Q 1894 3584 2278 3584 
Q 2916 3584 3314 3078 
Q 3713 2572 3713 1747 
Q 3713 922 3314 415 
Q 2916 -91 2278 -91 
Q 1894 -91 1617 61 
Q 1341 213 1159 525 
L 1159 0 
L 581 0 
L 581 4863 
L 1159 4863 
L 1159 2969 
z
" transform="scale(0.015625)"/>
       <path id="DejaVuSans-74" d="M 1172 4494 
L 1172 3500 
L 2356 3500 
L 2356 3053 
L 1172 3053 
L 1172 1153 
Q 1172 725 1289 603 
Q 1406 481 1766 481 
L 2356 481 
L 2356 0 
L 1766 0 
Q 1100 0 847 248 
Q 594 497 594 1153 
L 594 3053 
L 172 3053 
L 172 3500 
L 594 3500 
L 594 4494 
L 1172 4494 
z
" transform="scale(0.015625)"/>
       <path id="DejaVuSans-4b" d="M 628 4666 
L 1259 4666 
L 1259 2694 
L 3353 4666 
L 4166 4666 
L 1850 2491 
L 4331 0 
L 3500 0 
L 1259 2247 
L 1259 0 
L 628 0 
L 628 4666 
z
" transform="scale(0.015625)"/>
      </defs>
      <use xlink:href="#DejaVuSans-53"/>
      <use xlink:href="#DejaVuSans-69" x="63.476562"/>
      <use xlink:href="#DejaVuSans-7a" x="91.259766"/>
      <use xlink:href="#DejaVuSans-65" x="143.75"/>
      <use xlink:href="#DejaVuSans-20" x="205.273438"/>
      <use xlink:href="#DejaVuSans-6f" x="237.060547"/>
      <use xlink:href="#DejaVuSans-66" x="298.242188"/>
      <use xlink:href="#DejaVuSans-20" x="333.447266"/>
      <use xlink:href="#DejaVuSans-73" x="365.234375"/>
      <use xlink:href="#DejaVuSans-75" x="417.333984"/>
      <use xlink:href="#DejaVuSans-62" x="480.712891"/>
      <use xlink:href="#DejaVuSans-73" x="544.189453"/>
      <use xlink:href="#DejaVuSans-65" x="596.289062"/>
      <use xlink:href="#DejaVuSans-74" x="657.8125"/>
      <use xlink:href="#DejaVuSans-20" x="697.021484"/>
      <use xlink:href="#DejaVuSans-4b" x="728.808594"/>
     </g>
    </g>
   </g>
   <g id="matplotlib.axis_2">
    <g id="ytick_1">
     <g id="line2d_7">
      <defs>
       <path id="ma6ab1b9e03" d="M 0 0 
L -3.5 0 
" style="stroke: #000000; stroke-width: 0.8"/>
      </defs>
      <g>
       <use xlink:href="#ma6ab1b9e03" x="57.89" y="281.260552" style="stroke: #000000; stroke-width: 0.8"/>
      </g>
     </g>
     <g id="text_8">
      <!-- 0.0 -->
      <g transform="translate(34.986875 285.059771)scale(0.1 -0.1)">
       <defs>
        <path id="DejaVuSans-2e" d="M 684 794 
L 1344 794 
L 1344 0 
L 684 0 
L 684 794 
z
" transform="scale(0.015625)"/>
       </defs>
       <use xlink:href="#DejaVuSans-30"/>
       <use xlink:href="#DejaVuSans-2e" x="63.623047"/>
       <use xlink:href="#DejaVuSans-30" x="95.410156"/>
      </g>
     </g>
    </g>
    <g id="ytick_2">
     <g id="line2d_8">
      <g>
       <use xlink:href="#ma6ab1b9e03" x="57.89" y="228.649418" style="stroke: #000000; stroke-width: 0.8"/>
      </g>
     </g>
     <g id="text_9">
      <!-- 0.1 -->
      <g transform="translate(34.986875 232.448637)scale(0.1 -0.1)">
       <use xlink:href="#DejaVuSans-30"/>
       <use xlink:href="#DejaVuSans-2e" x="63.623047"/>
       <use xlink:href="#DejaVuSans-31" x="95.410156"/>
      </g>
     </g>
    </g>
    <g id="ytick_3">
     <g id="line2d_9">
      <g>
       <use xlink:href="#ma6ab1b9e03" x="57.89" y="176.038283" style="stroke: #000000; stroke-width: 0.8"/>
      </g>
     </g>
     <g id="text_10">
      <!-- 0.2 -->
      <g transform="translate(34.986875 179.837502)scale(0.1 -0.1)">
       <use xlink:href="#DejaVuSans-30"/>
       <use xlink:href="#DejaVuSans-2e" x="63.623047"/>
       <use xlink:href="#DejaVuSans-32" x="95.410156"/>
      </g>
     </g>
    </g>
    <g id="ytick_4">
     <g id="line2d_10">
      <g>
       <use xlink:href="#ma6ab1b9e03" x="57.89" y="123.427149" style="stroke: #000000; stroke-width: 0.8"/>
      </g>
     </g>
     <g id="text_11">
      <!-- 0.3 -->
      <g transform="translate(34.986875 127.226368)scale(0.1 -0.1)">
       <defs>
        <path id="DejaVuSans-33" d="M 2597 2516 
Q 3050 2419 3304 2112 
Q 3559 1806 3559 1356 
Q 3559 666 3084 287 
Q 2609 -91 1734 -91 
Q 1441 -91 1130 -33 
Q 819 25 488 141 
L 488 750 
Q 750 597 1062 519 
Q 1375 441 1716 441 
Q 2309 441 2620 675 
Q 2931 909 2931 1356 
Q 2931 1769 2642 2001 
Q 2353 2234 1838 2234 
L 1294 2234 
L 1294 2753 
L 1863 2753 
Q 2328 2753 2575 2939 
Q 2822 3125 2822 3475 
Q 2822 3834 2567 4026 
Q 2313 4219 1838 4219 
Q 1578 4219 1281 4162 
Q 984 4106 628 3988 
L 628 4550 
Q 988 4650 1302 4700 
Q 1616 4750 1894 4750 
Q 2613 4750 3031 4423 
Q 3450 4097 3450 3541 
Q 3450 3153 3228 2886 
Q 3006 2619 2597 2516 
z
" transform="scale(0.015625)"/>
       </defs>
       <use xlink:href="#DejaVuSans-30"/>
       <use xlink:href="#DejaVuSans-2e" x="63.623047"/>
       <use xlink:href="#DejaVuSans-33" x="95.410156"/>
      </g>
     </g>
    </g>
    <g id="ytick_5">
     <g id="line2d_11">
      <g>
       <use xlink:href="#ma6ab1b9e03" x="57.89" y="70.816014" style="stroke: #000000; stroke-width: 0.8"/>
      </g>
     </g>
     <g id="text_12">
      <!-- 0.4 -->
      <g transform="translate(34.986875 74.615233)scale(0.1 -0.1)">
       <defs>
        <path id="DejaVuSans-34" d="M 2419 4116 
L 825 1625 
L 2419 1625 
L 2419 4116 
z
M 2253 4666 
L 3047 4666 
L 3047 1625 
L 3713 1625 
L 3713 1100 
L 3047 1100 
L 3047 0 
L 2419 0 
L 2419 1100 
L 313 1100 
L 313 1709 
L 2253 4666 
z
" transform="scale(0.015625)"/>
       </defs>
       <use xlink:href="#DejaVuSans-30"/>
       <use xlink:href="#DejaVuSans-2e" x="63.623047"/>
       <use xlink:href="#DejaVuSans-34" x="95.410156"/>
      </g>
     </g>
    </g>
    <g id="ytick_6">
     <g id="line2d_12">
      <g>
       <use xlink:href="#ma6ab1b9e03" x="57.89" y="18.20488" style="stroke: #000000; stroke-width: 0.8"/>
      </g>
     </g>
     <g id="text_13">
      <!-- 0.5 -->
      <g transform="translate(34.986875 22.004099)scale(0.1 -0.1)">
       <use xlink:href="#DejaVuSans-30"/>
       <use xlink:href="#DejaVuSans-2e" x="63.623047"/>
       <use xlink:href="#DejaVuSans-35" x="95.410156"/>
      </g>
     </g>
    </g>
    <g id="text_14">
     <!-- Norm of Mean Direction Vector -->
     <g transform="translate(26.8275 306.0925)rotate(-90)scale(0.2 -0.2)">
      <defs>
       <path id="DejaVuSans-4e" d="M 628 4666 
L 1478 4666 
L 3547 763 
L 3547 4666 
L 4159 4666 
L 4159 0 
L 3309 0 
L 1241 3903 
L 1241 0 
L 628 0 
L 628 4666 
z
" transform="scale(0.015625)"/>
       <path id="DejaVuSans-72" d="M 2631 2963 
Q 2534 3019 2420 3045 
Q 2306 3072 2169 3072 
Q 1681 3072 1420 2755 
Q 1159 2438 1159 1844 
L 1159 0 
L 581 0 
L 581 3500 
L 1159 3500 
L 1159 2956 
Q 1341 3275 1631 3429 
Q 1922 3584 2338 3584 
Q 2397 3584 2469 3576 
Q 2541 3569 2628 3553 
L 2631 2963 
z
" transform="scale(0.015625)"/>
       <path id="DejaVuSans-6d" d="M 3328 2828 
Q 3544 3216 3844 3400 
Q 4144 3584 4550 3584 
Q 5097 3584 5394 3201 
Q 5691 2819 5691 2113 
L 5691 0 
L 5113 0 
L 5113 2094 
Q 5113 2597 4934 2840 
Q 4756 3084 4391 3084 
Q 3944 3084 3684 2787 
Q 3425 2491 3425 1978 
L 3425 0 
L 2847 0 
L 2847 2094 
Q 2847 2600 2669 2842 
Q 2491 3084 2119 3084 
Q 1678 3084 1418 2786 
Q 1159 2488 1159 1978 
L 1159 0 
L 581 0 
L 581 3500 
L 1159 3500 
L 1159 2956 
Q 1356 3278 1631 3431 
Q 1906 3584 2284 3584 
Q 2666 3584 2933 3390 
Q 3200 3197 3328 2828 
z
" transform="scale(0.015625)"/>
       <path id="DejaVuSans-4d" d="M 628 4666 
L 1569 4666 
L 2759 1491 
L 3956 4666 
L 4897 4666 
L 4897 0 
L 4281 0 
L 4281 4097 
L 3078 897 
L 2444 897 
L 1241 4097 
L 1241 0 
L 628 0 
L 628 4666 
z
" transform="scale(0.015625)"/>
       <path id="DejaVuSans-61" d="M 2194 1759 
Q 1497 1759 1228 1600 
Q 959 1441 959 1056 
Q 959 750 1161 570 
Q 1363 391 1709 391 
Q 2188 391 2477 730 
Q 2766 1069 2766 1631 
L 2766 1759 
L 2194 1759 
z
M 3341 1997 
L 3341 0 
L 2766 0 
L 2766 531 
Q 2569 213 2275 61 
Q 1981 -91 1556 -91 
Q 1019 -91 701 211 
Q 384 513 384 1019 
Q 384 1609 779 1909 
Q 1175 2209 1959 2209 
L 2766 2209 
L 2766 2266 
Q 2766 2663 2505 2880 
Q 2244 3097 1772 3097 
Q 1472 3097 1187 3025 
Q 903 2953 641 2809 
L 641 3341 
Q 956 3463 1253 3523 
Q 1550 3584 1831 3584 
Q 2591 3584 2966 3190 
Q 3341 2797 3341 1997 
z
" transform="scale(0.015625)"/>
       <path id="DejaVuSans-6e" d="M 3513 2113 
L 3513 0 
L 2938 0 
L 2938 2094 
Q 2938 2591 2744 2837 
Q 2550 3084 2163 3084 
Q 1697 3084 1428 2787 
Q 1159 2491 1159 1978 
L 1159 0 
L 581 0 
L 581 3500 
L 1159 3500 
L 1159 2956 
Q 1366 3272 1645 3428 
Q 1925 3584 2291 3584 
Q 2894 3584 3203 3211 
Q 3513 2838 3513 2113 
z
" transform="scale(0.015625)"/>
       <path id="DejaVuSans-44" d="M 1259 4147 
L 1259 519 
L 2022 519 
Q 2988 519 3436 956 
Q 3884 1394 3884 2338 
Q 3884 3275 3436 3711 
Q 2988 4147 2022 4147 
L 1259 4147 
z
M 628 4666 
L 1925 4666 
Q 3281 4666 3915 4102 
Q 4550 3538 4550 2338 
Q 4550 1131 3912 565 
Q 3275 0 1925 0 
L 628 0 
L 628 4666 
z
" transform="scale(0.015625)"/>
       <path id="DejaVuSans-63" d="M 3122 3366 
L 3122 2828 
Q 2878 2963 2633 3030 
Q 2388 3097 2138 3097 
Q 1578 3097 1268 2742 
Q 959 2388 959 1747 
Q 959 1106 1268 751 
Q 1578 397 2138 397 
Q 2388 397 2633 464 
Q 2878 531 3122 666 
L 3122 134 
Q 2881 22 2623 -34 
Q 2366 -91 2075 -91 
Q 1284 -91 818 406 
Q 353 903 353 1747 
Q 353 2603 823 3093 
Q 1294 3584 2113 3584 
Q 2378 3584 2631 3529 
Q 2884 3475 3122 3366 
z
" transform="scale(0.015625)"/>
       <path id="DejaVuSans-56" d="M 1831 0 
L 50 4666 
L 709 4666 
L 2188 738 
L 3669 4666 
L 4325 4666 
L 2547 0 
L 1831 0 
z
" transform="scale(0.015625)"/>
      </defs>
      <use xlink:href="#DejaVuSans-4e"/>
      <use xlink:href="#DejaVuSans-6f" x="74.804688"/>
      <use xlink:href="#DejaVuSans-72" x="135.986328"/>
      <use xlink:href="#DejaVuSans-6d" x="175.349609"/>
      <use xlink:href="#DejaVuSans-20" x="272.761719"/>
      <use xlink:href="#DejaVuSans-6f" x="304.548828"/>
      <use xlink:href="#DejaVuSans-66" x="365.730469"/>
      <use xlink:href="#DejaVuSans-20" x="400.935547"/>
      <use xlink:href="#DejaVuSans-4d" x="432.722656"/>
      <use xlink:href="#DejaVuSans-65" x="519.001953"/>
      <use xlink:href="#DejaVuSans-61" x="580.525391"/>
      <use xlink:href="#DejaVuSans-6e" x="641.804688"/>
      <use xlink:href="#DejaVuSans-20" x="705.183594"/>
      <use xlink:href="#DejaVuSans-44" x="736.970703"/>
      <use xlink:href="#DejaVuSans-69" x="813.972656"/>
      <use xlink:href="#DejaVuSans-72" x="841.755859"/>
      <use xlink:href="#DejaVuSans-65" x="880.619141"/>
      <use xlink:href="#DejaVuSans-63" x="942.142578"/>
      <use xlink:href="#DejaVuSans-74" x="997.123047"/>
      <use xlink:href="#DejaVuSans-69" x="1036.332031"/>
      <use xlink:href="#DejaVuSans-6f" x="1064.115234"/>
      <use xlink:href="#DejaVuSans-6e" x="1125.296875"/>
      <use xlink:href="#DejaVuSans-20" x="1188.675781"/>
      <use xlink:href="#DejaVuSans-56" x="1220.462891"/>
      <use xlink:href="#DejaVuSans-65" x="1281.121094"/>
      <use xlink:href="#DejaVuSans-63" x="1342.644531"/>
      <use xlink:href="#DejaVuSans-74" x="1397.625"/>
      <use xlink:href="#DejaVuSans-6f" x="1436.833984"/>
      <use xlink:href="#DejaVuSans-72" x="1498.015625"/>
     </g>
    </g>
   </g>
   <g id="patch_3">
    <path d="M 57.89 293.56 
L 57.89 10.8 
" style="fill: none; stroke: #000000; stroke-width: 0.8; stroke-linejoin: miter; stroke-linecap: square"/>
   </g>
   <g id="patch_4">
    <path d="M 450 293.56 
L 450 10.8 
" style="fill: none; stroke: #000000; stroke-width: 0.8; stroke-linejoin: miter; stroke-linecap: square"/>
   </g>
   <g id="patch_5">
    <path d="M 57.89 293.56 
L 450 293.56 
" style="fill: none; stroke: #000000; stroke-width: 0.8; stroke-linejoin: miter; stroke-linecap: square"/>
   </g>
   <g id="patch_6">
    <path d="M 57.89 10.8 
L 450 10.8 
" style="fill: none; stroke: #000000; stroke-width: 0.8; stroke-linejoin: miter; stroke-linecap: square"/>
   </g>
   <g id="legend_1">
    <g id="patch_7">
     <path d="M 66.99 192.293125 
L 201.399844 192.293125 
Q 203.999844 192.293125 203.999844 189.693125 
L 203.999844 114.666875 
Q 203.999844 112.066875 201.399844 112.066875 
L 66.99 112.066875 
Q 64.39 112.066875 64.39 114.666875 
L 64.39 189.693125 
Q 64.39 192.293125 66.99 192.293125 
z
" style="fill: #ffffff; opacity: 0.8; stroke: #cccccc; stroke-linejoin: miter"/>
    </g>
    <g id="PathCollection_5">
     <path d="M 82.59 127.632344 
C 83.624292 127.632344 84.616361 127.221415 85.347716 126.49006 
C 86.079071 125.758705 86.49 124.766636 86.49 123.732344 
C 86.49 122.698052 86.079071 121.705982 85.347716 120.974627 
C 84.616361 120.243272 83.624292 119.832344 82.59 119.832344 
C 81.555708 119.832344 80.563639 120.243272 79.832284 120.974627 
C 79.100929 121.705982 78.69 122.698052 78.69 123.732344 
C 78.69 124.766636 79.100929 125.758705 79.832284 126.49006 
C 80.563639 127.221415 81.555708 127.632344 82.59 127.632344 
L 82.59 127.632344 
z
" style="fill: none; stroke: #0000ff"/>
    </g>
    <g id="text_15">
     <!-- origin -->
     <g transform="translate(105.99 127.144844)scale(0.13 -0.13)">
      <defs>
       <path id="DejaVuSans-67" d="M 2906 1791 
Q 2906 2416 2648 2759 
Q 2391 3103 1925 3103 
Q 1463 3103 1205 2759 
Q 947 2416 947 1791 
Q 947 1169 1205 825 
Q 1463 481 1925 481 
Q 2391 481 2648 825 
Q 2906 1169 2906 1791 
z
M 3481 434 
Q 3481 -459 3084 -895 
Q 2688 -1331 1869 -1331 
Q 1566 -1331 1297 -1286 
Q 1028 -1241 775 -1147 
L 775 -588 
Q 1028 -725 1275 -790 
Q 1522 -856 1778 -856 
Q 2344 -856 2625 -561 
Q 2906 -266 2906 331 
L 2906 616 
Q 2728 306 2450 153 
Q 2172 0 1784 0 
Q 1141 0 747 490 
Q 353 981 353 1791 
Q 353 2603 747 3093 
Q 1141 3584 1784 3584 
Q 2172 3584 2450 3431 
Q 2728 3278 2906 2969 
L 2906 3500 
L 3481 3500 
L 3481 434 
z
" transform="scale(0.015625)"/>
      </defs>
      <use xlink:href="#DejaVuSans-6f"/>
      <use xlink:href="#DejaVuSans-72" x="61.181641"/>
      <use xlink:href="#DejaVuSans-69" x="102.294922"/>
      <use xlink:href="#DejaVuSans-67" x="130.078125"/>
      <use xlink:href="#DejaVuSans-69" x="193.554688"/>
      <use xlink:href="#DejaVuSans-6e" x="221.337891"/>
     </g>
    </g>
    <g id="PathCollection_6">
     <defs>
      <path id="m5e3108600e" d="M 0 -3.9 
L -3.9 3.9 
L 3.9 3.9 
z
" style="stroke: #ff0000"/>
     </defs>
     <g>
      <use xlink:href="#m5e3108600e" x="82.59" y="142.813906" style="fill: #ff0000; stroke: #ff0000"/>
     </g>
    </g>
    <g id="text_16">
     <!-- MILP-P-S(SC) -->
     <g transform="translate(105.99 146.226406)scale(0.13 -0.13)">
      <defs>
       <path id="DejaVuSans-49" d="M 628 4666 
L 1259 4666 
L 1259 0 
L 628 0 
L 628 4666 
z
" transform="scale(0.015625)"/>
       <path id="DejaVuSans-4c" d="M 628 4666 
L 1259 4666 
L 1259 531 
L 3531 531 
L 3531 0 
L 628 0 
L 628 4666 
z
" transform="scale(0.015625)"/>
       <path id="DejaVuSans-50" d="M 1259 4147 
L 1259 2394 
L 2053 2394 
Q 2494 2394 2734 2622 
Q 2975 2850 2975 3272 
Q 2975 3691 2734 3919 
Q 2494 4147 2053 4147 
L 1259 4147 
z
M 628 4666 
L 2053 4666 
Q 2838 4666 3239 4311 
Q 3641 3956 3641 3272 
Q 3641 2581 3239 2228 
Q 2838 1875 2053 1875 
L 1259 1875 
L 1259 0 
L 628 0 
L 628 4666 
z
" transform="scale(0.015625)"/>
       <path id="DejaVuSans-2d" d="M 313 2009 
L 1997 2009 
L 1997 1497 
L 313 1497 
L 313 2009 
z
" transform="scale(0.015625)"/>
       <path id="DejaVuSans-28" d="M 1984 4856 
Q 1566 4138 1362 3434 
Q 1159 2731 1159 2009 
Q 1159 1288 1364 580 
Q 1569 -128 1984 -844 
L 1484 -844 
Q 1016 -109 783 600 
Q 550 1309 550 2009 
Q 550 2706 781 3412 
Q 1013 4119 1484 4856 
L 1984 4856 
z
" transform="scale(0.015625)"/>
       <path id="DejaVuSans-43" d="M 4122 4306 
L 4122 3641 
Q 3803 3938 3442 4084 
Q 3081 4231 2675 4231 
Q 1875 4231 1450 3742 
Q 1025 3253 1025 2328 
Q 1025 1406 1450 917 
Q 1875 428 2675 428 
Q 3081 428 3442 575 
Q 3803 722 4122 1019 
L 4122 359 
Q 3791 134 3420 21 
Q 3050 -91 2638 -91 
Q 1578 -91 968 557 
Q 359 1206 359 2328 
Q 359 3453 968 4101 
Q 1578 4750 2638 4750 
Q 3056 4750 3426 4639 
Q 3797 4528 4122 4306 
z
" transform="scale(0.015625)"/>
       <path id="DejaVuSans-29" d="M 513 4856 
L 1013 4856 
Q 1481 4119 1714 3412 
Q 1947 2706 1947 2009 
Q 1947 1309 1714 600 
Q 1481 -109 1013 -844 
L 513 -844 
Q 928 -128 1133 580 
Q 1338 1288 1338 2009 
Q 1338 2731 1133 3434 
Q 928 4138 513 4856 
z
" transform="scale(0.015625)"/>
      </defs>
      <use xlink:href="#DejaVuSans-4d"/>
      <use xlink:href="#DejaVuSans-49" x="86.279297"/>
      <use xlink:href="#DejaVuSans-4c" x="115.771484"/>
      <use xlink:href="#DejaVuSans-50" x="171.484375"/>
      <use xlink:href="#DejaVuSans-2d" x="229.537109"/>
      <use xlink:href="#DejaVuSans-50" x="265.621094"/>
      <use xlink:href="#DejaVuSans-2d" x="323.673828"/>
      <use xlink:href="#DejaVuSans-53" x="359.757812"/>
      <use xlink:href="#DejaVuSans-28" x="423.234375"/>
      <use xlink:href="#DejaVuSans-53" x="462.248047"/>
      <use xlink:href="#DejaVuSans-43" x="525.724609"/>
      <use xlink:href="#DejaVuSans-29" x="595.548828"/>
     </g>
    </g>
    <g id="PathCollection_7">
     <path d="M 82.59 157.995469 
L 78.69 165.795469 
L 86.49 165.795469 
L 82.59 157.995469 
z
" style="fill: none; stroke: #ff0000"/>
    </g>
    <g id="text_17">
     <!-- MILP-P-S(EEM) -->
     <g transform="translate(105.99 165.307969)scale(0.13 -0.13)">
      <defs>
       <path id="DejaVuSans-45" d="M 628 4666 
L 3578 4666 
L 3578 4134 
L 1259 4134 
L 1259 2753 
L 3481 2753 
L 3481 2222 
L 1259 2222 
L 1259 531 
L 3634 531 
L 3634 0 
L 628 0 
L 628 4666 
z
" transform="scale(0.015625)"/>
      </defs>
      <use xlink:href="#DejaVuSans-4d"/>
      <use xlink:href="#DejaVuSans-49" x="86.279297"/>
      <use xlink:href="#DejaVuSans-4c" x="115.771484"/>
      <use xlink:href="#DejaVuSans-50" x="171.484375"/>
      <use xlink:href="#DejaVuSans-2d" x="229.537109"/>
      <use xlink:href="#DejaVuSans-50" x="265.621094"/>
      <use xlink:href="#DejaVuSans-2d" x="323.673828"/>
      <use xlink:href="#DejaVuSans-53" x="359.757812"/>
      <use xlink:href="#DejaVuSans-28" x="423.234375"/>
      <use xlink:href="#DejaVuSans-45" x="462.248047"/>
      <use xlink:href="#DejaVuSans-45" x="525.431641"/>
      <use xlink:href="#DejaVuSans-4d" x="588.615234"/>
      <use xlink:href="#DejaVuSans-29" x="674.894531"/>
     </g>
    </g>
    <g id="PathCollection_8">
     <path d="M 78.69 184.877031 
L 86.49 184.877031 
L 86.49 177.077031 
L 78.69 177.077031 
L 78.69 184.877031 
z
" style="fill: none; stroke: #bfbf00"/>
    </g>
    <g id="text_18">
     <!-- dirflip -->
     <g transform="translate(105.99 184.389531)scale(0.13 -0.13)">
      <defs>
       <path id="DejaVuSans-64" d="M 2906 2969 
L 2906 4863 
L 3481 4863 
L 3481 0 
L 2906 0 
L 2906 525 
Q 2725 213 2448 61 
Q 2172 -91 1784 -91 
Q 1150 -91 751 415 
Q 353 922 353 1747 
Q 353 2572 751 3078 
Q 1150 3584 1784 3584 
Q 2172 3584 2448 3432 
Q 2725 3281 2906 2969 
z
M 947 1747 
Q 947 1113 1208 752 
Q 1469 391 1925 391 
Q 2381 391 2643 752 
Q 2906 1113 2906 1747 
Q 2906 2381 2643 2742 
Q 2381 3103 1925 3103 
Q 1469 3103 1208 2742 
Q 947 2381 947 1747 
z
" transform="scale(0.015625)"/>
       <path id="DejaVuSans-6c" d="M 603 4863 
L 1178 4863 
L 1178 0 
L 603 0 
L 603 4863 
z
" transform="scale(0.015625)"/>
       <path id="DejaVuSans-70" d="M 1159 525 
L 1159 -1331 
L 581 -1331 
L 581 3500 
L 1159 3500 
L 1159 2969 
Q 1341 3281 1617 3432 
Q 1894 3584 2278 3584 
Q 2916 3584 3314 3078 
Q 3713 2572 3713 1747 
Q 3713 922 3314 415 
Q 2916 -91 2278 -91 
Q 1894 -91 1617 61 
Q 1341 213 1159 525 
z
M 3116 1747 
Q 3116 2381 2855 2742 
Q 2594 3103 2138 3103 
Q 1681 3103 1420 2742 
Q 1159 2381 1159 1747 
Q 1159 1113 1420 752 
Q 1681 391 2138 391 
Q 2594 391 2855 752 
Q 3116 1113 3116 1747 
z
" transform="scale(0.015625)"/>
      </defs>
      <use xlink:href="#DejaVuSans-64"/>
      <use xlink:href="#DejaVuSans-69" x="63.476562"/>
      <use xlink:href="#DejaVuSans-72" x="91.259766"/>
      <use xlink:href="#DejaVuSans-66" x="132.373047"/>
      <use xlink:href="#DejaVuSans-6c" x="167.578125"/>
      <use xlink:href="#DejaVuSans-69" x="195.361328"/>
      <use xlink:href="#DejaVuSans-70" x="223.144531"/>
     </g>
    </g>
   </g>
  </g>
 </g>
 <defs>
  <clipPath id="p85b4fab8ad">
   <rect x="57.89" y="10.8" width="392.11" height="282.76"/>
  </clipPath>
 </defs>
</svg>
